<?xml version="1.0" standalone="no"?>
<!DOCTYPE svg PUBLIC "-//W3C//DTD SVG 1.1//EN" "http://www.w3.org/Graphics/SVG/1.1/DTD/svg11.dtd" >
<!--
2013-9-30: Created.
-->
<svg>
<metadata>
Created by iconfont
</metadata>
<defs>

<font id="iconfont" horiz-adv-x="1024" >
  <font-face
    font-family="iconfont"
    font-weight="500"
    font-stretch="normal"
    units-per-em="1024"
    ascent="896"
    descent="-128"
  />
    <missing-glyph />
    
    <glyph glyph-name="combinedshapecopy2" unicode="&#58962;" d="M0-60.865864 1146.877993-60.865864 1146.877993-124.7232 0-124.7232 0-60.865864ZM0-16.775537 300.529213 68.547994 85.868257 281.896387 0-16.775537ZM802.673951 567.629578 588.010209 780.980716 115.744481 311.621509 330.405437 98.291139 802.673951 567.629578ZM902.442885 746.845225 768.272343 880.181371C746.042941 902.277693 708.804076 901.074616 685.091594 877.515981L620.682076 813.523681 835.34721 600.173896 899.75255 664.185651C923.465032 687.745638 924.668109 724.746117 902.442885 746.845225Z"  horiz-adv-x="1147" />

    
    <glyph glyph-name="bianji" unicode="&#58893;" d="M1005.037624 737.007893 899.701554 631.955278 759.214916 772.032594 864.587825 877.084185c19.389606 19.335371 50.835805 19.335371 70.225411 0l70.224388-70.047356C1024.42723 787.702482 1024.42723 756.343263 1005.037624 737.007893zM267.31879 281.80855l140.484591-140.091642-187.231265-46.62183L267.31879 281.80855zM864.587825 596.95002l-421.387259-420.210457L302.75179 316.796412l421.352467 420.211481L864.587825 596.95002zM113.70518 714.276169l0-728.575594 728.57764 0L842.28282 532.131759l109.289102 72.858378 0-692.146916c0-27.535123-8.895601-36.429701-36.432771-36.429701L54.296115-123.58648c-27.535123 0-49.875944 22.305005-49.875944 49.841152L4.420171 787.133523c0 27.535123 8.858762 36.429701 36.428677 36.429701l692.14794 0L623.709733 714.276169 113.70518 714.276169z"  horiz-adv-x="1024" />

    
    <glyph glyph-name="gengduo5" unicode="&#59044;" d="M516.297792 829.281903C272.858599 829.281903 74.750874 631.174178 74.750874 387.632657c0-243.439193 198.107725-441.649246 441.546917-441.649246 243.439193 0 441.546917 198.107725 441.546917 441.649246C957.947037 631.174178 759.839312 829.281903 516.297792 829.281903L516.297792 829.281903zM516.297792 7.994404c-209.363845 0-379.638253 170.274408-379.638253 379.638253 0 209.363845 170.274408 379.638253 379.638253 379.638253 209.261517 0 379.638253-170.274408 379.638253-379.638253C895.936045 178.37114 725.661637 7.994404 516.297792 7.994404L516.297792 7.994404zM325.250724 445.755171c-32.02878 0-58.122514-25.991406-58.122514-58.122514 0-32.131108 25.991406-58.122514 58.122514-58.122514 32.02878 0 58.122514 25.991406 58.122514 58.122514C383.373239 419.763765 357.279504 445.755171 325.250724 445.755171L325.250724 445.755171zM516.297792 445.755171c-32.02878 0-58.122514-25.991406-58.122514-58.122514 0-32.131108 25.991406-58.122514 58.122514-58.122514 32.131108 0 58.122514 25.991406 58.122514 58.122514C574.420306 419.763765 548.4289 445.755171 516.297792 445.755171L516.297792 445.755171zM707.447187 445.755171c-32.02878 0-58.122514-25.991406-58.122514-58.122514 0-32.131108 25.991406-58.122514 58.122514-58.122514 32.02878 0 58.122514 25.991406 58.122514 58.122514C765.569701 419.763765 739.475967 445.755171 707.447187 445.755171L707.447187 445.755171z"  horiz-adv-x="1024" />

    
    <glyph glyph-name="baocun" unicode="&#58898;" d="M296.896 121.5936 413.568 121.5936 413.568-67.7248 296.896-67.7248 296.896 121.5936ZM940.888186 895.961888 22.875417 895.961888C10.7259 895.961888 0.876844 886.112833 0.876844 873.963316L0.876844 79.141888 147.983078-66.049126 215.163148-66.049126 215.163148-65.924749 215.163148-33.236186 215.163148 214.443123 657.644186 214.443123 657.644186-65.924749 656.954048-65.924749 656.954048-66.049126 940.888186-66.049126C953.037709-66.049126 962.886758-56.200077 962.886758-44.050554L962.886758 873.963316C962.887859 886.112833 953.038803 895.961888 940.888186 895.961888L940.888186 895.961888ZM809.340339 411.831495 154.424369 411.831495 154.424369 843.305544 809.340339 843.305544 809.340339 411.831495 809.340339 411.831495ZM296.896-65.9264 413.568-65.9264 413.568-72.3264 296.896-72.3264Z"  horiz-adv-x="1024" />

    
    <glyph glyph-name="yinlehe" unicode="&#58998;" d="M569.716887 387.989735a76.140639 76.140639 0 0 0-72.37149 52.269364L381.588736 789.332134c-13.231982 39.913334 8.471793 83.151447 48.38193 96.383429A76.111867 76.111867 0 0 0 453.982604 889.606194a76.143836 76.143836 0 0 0 72.374687-52.272561l115.756661-349.069839c6.409791-19.334869 4.907246-40.009241-4.229503-58.212406s-24.817558-31.761231-44.152427-38.171022a76.131048 76.131048 0 0 0-24.015135-3.890631zM453.982604 844.849552c-3.353551 0-6.691118-0.543474-9.923187-1.617633-16.483232-5.466704-25.450545-23.327801-19.98384-39.817427l115.756661-349.069838a31.451132 31.451132 0 0 1 39.811033-19.983841 31.307271 31.307271 0 0 1 18.241528 15.770322 31.284893 31.284893 0 0 1 1.745509 24.047105l-115.756661 349.069838a31.457526 31.457526 0 0 1-29.891043 21.601474zM110.468983 429.421598c-11.716649 0-23.35977 2.733352-34.13653 8.145709a75.750617 75.750617 0 0 0-38.171022 44.152427c-12.813187 38.640967 7.125897 80.398914 44.628766 95.034335L390.022166 808.561506a22.378321 22.378321 0 0 0 26.956286-35.728588L107.064281 538.995448a22.349549 22.349549 0 0 0-6.432168-3.375929c-16.486429-5.469901-25.453742-23.334195-19.987038-39.820624a31.29768 31.29768 0 0 1 15.767126-18.238332 31.29768 31.29768 0 0 1 24.047104-1.745509c2.314558 0.76406 4.667478 1.08375 7.177047 1.134901l388.228704-2.327346a22.378321 22.378321 0 0 0-0.131073-44.756642h-0.137467l-384.865562 2.308164a76.396391 76.396391 0 0 0-20.261971-2.752533zM276.771877 242.287684a22.355943 22.355943 0 0 0-19.136661 10.747988L142.070369 442.944498a22.371927 22.371927 0 0 0 7.48395 30.747813 22.371927 22.371927 0 0 0 30.747813-7.48395l115.56165-189.908826a22.371927 22.371927 0 0 0-19.091905-34.011851zM673.341301-117.849833H72.387475a22.378321 22.378321 0 0 0-22.378321 22.378321V264.669202a22.378321 22.378321 0 0 0 22.378321 22.378321h600.953826a22.378321 22.378321 0 0 0 22.378321-22.378321v-360.137517a22.378321 22.378321 0 0 0-22.378321-22.381518z m-578.575505 44.756642h556.197184v315.380875H94.765796v-315.380875zM357.730249 242.287684a22.355943 22.355943 0 0 0-19.136662 10.747988l-115.564846 189.908826a22.371927 22.371927 0 0 0 7.48395 30.747813 22.36873 22.36873 0 0 0 30.747813-7.48395l115.564846-189.908826a22.371927 22.371927 0 0 0-19.095101-34.011851zM746.035678 567.975374c-23.139184 0-44.638357 10.402722-58.98286 28.535556-25.712691 32.502913-20.185246 79.865031 12.320864 105.577722a75.427729 75.427729 0 0 0 46.594861 16.214692c23.142381 0 44.641553-10.402722 58.98286-28.535557 12.455134-15.747944 18.036927-35.399307 15.706385-55.344784a74.679654 74.679654 0 0 0-28.027249-50.236134 75.430926 75.430926 0 0 0-46.594861-16.211495z m-0.067135 105.571328c-6.889326 0-13.401417-2.269801-18.829759-6.563242-13.148862-10.402722-15.386694-29.558565-4.983971-42.707427a30.271475 30.271475 0 0 1 23.880865-11.544017c6.889326 0 13.401417 2.269801 18.829759 6.563242a30.223521 30.223521 0 0 1 11.339415 20.319515 30.217127 30.217127 0 0 1-6.355444 22.387912 30.271475 30.271475 0 0 1-23.880865 11.544017zM778.650482 660.231601c-4.373363 0-8.791483 1.278761-12.666129 3.944978L655.684805 740.07745a22.378321 22.378321 0 0 0-8.657213 25.172414l22.841872 72.3619a22.378321 22.378321 0 0 0 42.681852-13.474947l-17.8579-56.572395 96.661559-66.514764a22.375124 22.375124 0 0 0 5.751228-31.118654 22.355943 22.355943 0 0 0-18.455721-9.699403zM885.113746 421.950436c-0.578639 0-1.154082 0.009591-1.735918 0.025575-33.986276 0.946283-60.865836 29.366751-59.916356 63.34983 0.936693 33.615435 27.998476 59.945128 61.607517 59.945128 0.581836 0 1.160476-0.009591 1.742313-0.025575 33.986276-0.946283 60.865836-29.366751 59.916356-63.34983-0.933496-33.615435-27.998476-59.945128-61.613912-59.945128z m-0.04156 94.548406a32.707515 32.707515 0 0 1-32.848178-31.972227c-0.505111-18.129637 13.829802-33.286154 31.956242-33.791265l0.936693-0.012787a32.710711 32.710711 0 0 1 32.854572 31.972226c0.505111 18.129637-13.829802 33.286154-31.956242 33.791265l-0.943087 0.012788zM930.215654 477.541382a14.392457 14.392457 0 0 0-13.852181 10.540189L884.26337 603.624039a14.392457 14.392457 0 0 0 6.122069 15.978121l57.291699 36.556586a14.386064 14.386064 0 0 0 15.479404-24.2581l-48.321189-30.830932 29.251663-105.290001a14.382867 14.382867 0 0 0-13.871362-18.238331zM921.059723 220.922781c-0.409204 0-0.81521 0.006394-1.22761 0.015985-23.970379 0.668153-42.928013 20.712735-42.263058 44.68631 0.677743 24.114239 20.434604 42.790547 44.68631 42.25986 23.967182-0.668153 42.924817-20.712735 42.259861-44.68631-0.661759-23.705036-19.74727-42.275845-43.455503-42.275845z m-0.028772 64.596622a20.994062 20.994062 0 0 1-21.086772-20.52092 21.128332 21.128332 0 0 1 20.514527-21.68779l0.601017-0.009591a20.990865 20.990865 0 0 1 21.083576 20.52092 21.125135 21.125135 0 0 1-20.51133 21.68779l-0.601018 0.009591zM951.871475 258.901989a11.195554 11.195554 0 0 0-10.773564 8.196859l-21.930754 78.941126a11.185964 11.185964 0 0 0 4.760188 12.426362l39.139684 24.977403a11.185964 11.185964 0 1 0 12.039537-18.861728l-32.164042-20.524117 19.715301-70.96805a11.185964 11.185964 0 0 0-10.78635-14.187855z"  horiz-adv-x="1024" />

    
    <glyph glyph-name="bofang" unicode="&#58888;" d="M123.3-63.2c-4.4 0-8.7 1.2-12.6 3.5-7.5 4.4-12.1 12.5-12.1 21.3V808.1c0 8.7 4.6 16.8 12.1 21.3s16.8 4.6 24.5 0.5l778.4-423.3c8-4.3 12.9-12.7 12.9-21.7 0-9.1-5-17.4-12.9-21.7L135.1-60.2c-3.7-2-7.8-3-11.8-3zM148 766.5v-763.3l701.9 381.7L148 766.5z"  horiz-adv-x="1024" />

    
    <glyph glyph-name="laba" unicode="&#59035;" d="M8.6 471.6v-175.4c0-35.4 28.8-64.2 64.1-64.2h165.7l-15.2 6.3 256.4-256.9c30.2-30.2 66.7-15 66.7 27.8V758.6c0 42.7-36.5 58.1-66.7 27.8L223.2 529.5l15.2 6.3H72.7c-35.4 0-64.1-28.8-64.1-64.2zM238.4 493h8.9l6.3 6.3L510 756.2c2.2 2.2 3.8 3.4 4.6 3.6-1.4-0.5-3.9-0.6-6.7 0.6-2.8 1.2-4.4 3-5 4.2 0.3-0.8 0.7-2.8 0.7-6v-749.4c0-3.2-0.3-5.3-0.7-6 0.5 1.3 2.2 3.1 5 4.3 2.9 1.2 5.4 1.1 6.7 0.5-0.7 0.3-2.4 1.5-4.6 3.7L253.5 268.5l-6.3 6.3H72.7c-11.6 0-21.3 9.6-21.3 21.4V471.6c0 11.8 9.5 21.4 21.3 21.4h165.7zM832.8 370.8C832.8 490.4 741.9 588 629 588c-11.8 0-21.4-9.6-21.4-21.4 0-11.8 9.6-21.4 21.4-21.4 88.5 0 160.9-77.7 160.9-174.3S717.5 196.5 629 196.5c-11.8 0-21.4-9.6-21.4-21.4 0-11.8 9.6-21.4 21.4-21.4 112.9 0 203.8 97.5 203.8 217.1zM1015.1 379.2c0 158-98 299-247.3 363.6-10.9 4.7-23.5-0.3-28.2-11.2-4.7-10.9 0.3-23.5 11.2-28.2 134-58 221.5-183.8 221.5-324.3 0-133.4-78.8-253.9-202.5-315.5-10.6-5.3-14.9-18.1-9.6-28.7 5.3-10.6 18.1-14.9 28.7-9.6 137.8 68.8 226.2 203.9 226.2 353.9z"  horiz-adv-x="1024" />

    
    <glyph glyph-name="zhuye" unicode="&#58894;" d="M858.453333 325.973333v40.96L518.826667 715.093333l-343.04-348.16v-42.666666h85.333333v-290.133334h221.866667v153.6h68.266666v-153.6h221.866667v290.133334l85.333333 1.706666z m-136.533333 51.2v-290.133333h-119.466667v153.6h-170.666666v-153.6h-119.466667v290.133333h-56.32l262.826667 266.24 257.706666-266.24h-54.613333z"  horiz-adv-x="1024" />

    
    <glyph glyph-name="shangyishou" unicode="&#58880;" d="M746.31 123.653v520.693l40.159-21.871-403.118-260.347v43.74l403.118-260.346-40.159-21.871zM798.381 123.653c0-20.623-22.836-33.058-40.159-21.871l-403.118 260.347c-15.88 10.256-15.88 33.485 0 43.74l403.118 260.347c17.324 11.187 40.159-1.246 40.159-21.871v-520.693zM280.348 618.526c0 14.26-11.556 25.822-26.034 25.822-14.378 0-26.034-11.854-26.034-25.822v-469.051c0-14.26 11.556-25.822 26.034-25.822 14.378 0 26.034 11.854 26.034 25.822v469.051z"  horiz-adv-x="1024" />

    
    <glyph glyph-name="FMxia" unicode="&#58886;" d="M896 640h-67.2L491.2 828.8c-14.4 8-33.6 3.2-43.2-12.8-9.6-14.4-3.2-33.6 11.2-41.6L702.4 640H128C57.6 640 0 582.4 0 512v-448c0-70.4 57.6-128 128-128h768c70.4 0 128 57.6 128 128V512c0 70.4-57.6 128-128 128z m64-576c0-35.2-28.8-64-64-64H128c-35.2 0-64 28.8-64 64V512c0 35.2 28.8 64 64 64h768c35.2 0 64-28.8 64-64v-448zM672 480c-105.6 0-192-86.4-192-192s86.4-192 192-192 192 86.4 192 192-86.4 192-192 192z m0-320c-70.4 0-128 57.6-128 128s57.6 128 128 128 128-57.6 128-128-57.6-128-128-128zM352 192H160c-17.6 0-32-14.4-32-32s14.4-32 32-32h192c17.6 0 32 14.4 32 32s-14.4 32-32 32zM352 320H160c-17.6 0-32-14.4-32-32s14.4-32 32-32h192c17.6 0 32 14.4 32 32s-14.4 32-32 32zM352 448H160c-17.6 0-32-14.4-32-32s14.4-32 32-32h192c17.6 0 32 14.4 32 32s-14.4 32-32 32z"  horiz-adv-x="1024" />

    
    <glyph glyph-name="xiayishoubofang32" unicode="&#59154;" d="M344 287.744c0 8.96 7.168 16.256 16 16.256h448c0.001 0 0.001 0 0.002 0 8.837 0 16-7.163 16-16 0-0.090-0.001-0.18-0.002-0.27l0-15.474c0-8.96-7.168-16.256-16-16.256h-448c-0.001-0-0.001-0-0.002-0-8.837 0-16 7.163-16 16 0 0.090 0.001 0.18 0.002 0.27l-0 15.474zM344 127.744c0 8.96 7.168 16.256 16 16.256h448c0.001 0 0.001 0 0.002 0 8.837 0 16-7.163 16-16 0-0.090-0.001-0.18-0.002-0.27l0-15.474c0-8.96-7.168-16.256-16-16.256h-448c-0.001-0-0.001-0-0.002-0-8.837 0-16 7.163-16 16 0 0.090 0.001 0.18 0.002 0.27l-0 15.474zM344 447.744c0 8.96 7.168 16.256 16 16.256h448c0.001 0 0.001 0 0.002 0 8.837 0 16-7.163 16-16 0-0.090-0.001-0.18-0.002-0.27l0-15.474c0-8.96-7.168-16.256-16-16.256h-448c-0.001-0-0.001-0-0.002-0-8.837 0-16 7.163-16 16 0 0.090 0.001 0.18 0.002 0.27l-0 15.474zM504 607.744c0 8.96 7.296 16.256 16.32 16.256h287.36c9.024 0 16.32-7.072 16.32-16.256v-15.488c0-8.96-7.296-16.256-16.32-16.256h-287.36c-0.048-0.001-0.104-0.001-0.16-0.001-8.925 0-16.16 7.235-16.16 16.16 0 0.034 0 0.068 0 0.102l-0 15.483zM354.56 632l-28.48 32.064c-3.388 4.107-5.443 9.424-5.443 15.22 0 13.255 10.745 24 24 24 6.784 0 12.911-2.815 17.277-7.341l64.007-72.007c3.758-4.217 6.054-9.808 6.054-15.936 0-13.246-10.731-23.985-23.973-24l-64.001-0c-34.752 0-72-37.248-72-72v-400c0-13.255-10.745-24-24-24-13.255 0-24 10.745-24 24v400c0 61.248 58.752 120 120 120h10.56z"  horiz-adv-x="1024" />

    
    <glyph glyph-name="shangyishou1" unicode="&#58881;" d="M277.69 644.347v-520.694l-40.159 21.871 403.118 260.348v-43.74l-403.118 260.346 40.159 21.871zM225.619 644.347c0 20.623 22.836 33.058 40.159 21.871l403.118-260.348c15.88-10.256 15.879-33.485 0-43.74l-403.118-260.348c-17.324-11.186-40.159 1.246-40.159 21.871v520.694zM743.652 149.474c0-14.26 11.556-25.822 26.034-25.822 14.378 0 26.034 11.854 26.034 25.822v469.051c0 14.26-11.556 25.822-26.034 25.822-14.378 0-26.034-11.854-26.034-25.822v-469.051z"  horiz-adv-x="1024" />

    
    <glyph glyph-name="music" unicode="&#59118;" d="M720.202 804.416c0 11.039-8.94 19.989-19.989 19.989h-193.723c-70.372 0-127.625-57.244-127.625-127.606v-432.049c-37.091 48.987-95.864 80.698-161.904 80.698-111.912 0-202.975-91.044-202.975-202.955 0-111.912 91.063-202.956 202.975-202.956s202.975 91.044 202.975 202.956c0 16.095-1.893 31.755-5.452 46.778 2.716 3.372 4.359 7.708 4.359 12.428 0 0.006-0 0.013-0 0.019l0 495.081c0 48.313 39.314 87.628 87.647 87.628h193.723c11.049 0 19.989 8.95 19.989 19.989zM216.961-20.484c-89.873 0-162.997 73.104-162.997 162.978 0 89.872 73.124 162.977 162.997 162.977s162.997-73.104 162.997-162.977c0-89.874-73.125-162.978-162.997-162.978zM584.924 594.55c0-11.039 8.941-19.989 19.989-19.989h378.934c11.049 0 19.989 8.95 19.989 19.989s-8.94 19.989-19.989 19.989h-378.934c-11.048 0.001-19.989-8.95-19.989-19.989zM983.847 420.778h-378.934c-11.048 0-19.989-8.95-19.989-19.989s8.941-19.989 19.989-19.989h378.934c11.049 0 19.989 8.95 19.989 19.989s-8.94 19.989-19.989 19.989zM983.847 216.261h-378.934c-11.048 0-19.989-8.94-19.989-19.989 0-11.048 8.941-19.988 19.989-19.988h378.934c11.049 0 19.989 8.94 19.989 19.988s-8.94 19.989-19.989 19.989z"  horiz-adv-x="1024" />

    
    <glyph glyph-name="jingyin" unicode="&#58927;" d="M363.4 298.1V896h-72.1v-661.8l72.1 63.9zM552 465.5V749.2h-75.4v-350.7l75.4 67z m116 102.8h-2.7v-2.4l2.7 2.4zM178.1 133.8V640h-75.5v-512h69l6.5 5.8z m113.2 4.4V-128h72.1V202.1l-72.1-63.9z m559.2 496V128H926V640h-68.9l-6.6-5.8zM665.3 469.9v-270.2h72V533.8l-72-63.9zM476.6 302.5v-283.7H552V369.5l-75.4-67zM98 42.3l28.5-31.8 793.4 703.8-28.5 31.8L98 42.3z"  horiz-adv-x="1024" />

    
    <glyph glyph-name="bofangye-caozuolan-suijibofang" unicode="&#58899;" d="M760.9 543.8h85.5c22.4 0 34 26.8 18.6 43.1l-72 76.6c-9.7 10.3-25.9 10.8-36.2 1.1-10.3-9.7-10.8-25.9-1.1-36.2l31.4-33.4h-26.3C670 595 610.9 544.6 490 398.5l-8.8-10.6c-102-123.1-154.6-167.3-218.8-167.3h-85c-14.1 0-25.6-11.5-25.6-25.6s11.5-25.6 25.6-25.6h85c86.2 0 145.6 50 258.3 185.9l8.8 10.6c110.1 132.9 162.8 177.9 231.4 177.9zM846.5 222.6H761c-53.2 0-104.7 33.6-169.2 104.3-8.9 9.7-24 10.4-33.8 1.5-9.7-8.9-10.4-24-1.5-33.8 72.8-79.7 134.3-119.9 204.5-119.9h31.2l-35.3-38.5c-8.9-9.7-8.3-24.8 1.4-33.8 9.7-8.9 24.8-8.3 33.8 1.4l72.1 78.5c13.9 15.6 3.1 40.3-17.7 40.3zM177.5 547.5h85c51.5 0 101.9-34.1 167.3-106.9 9.4-10.5 25.6-11.4 36.1-2s11.4 25.6 2 36.1c-74.3 82.8-135.1 123.9-205.4 123.9h-85c-14.1 0-25.6-11.5-25.6-25.6 0-14.1 11.4-25.5 25.6-25.5z"  horiz-adv-x="1024" />

    
    <glyph glyph-name="kuwo" unicode="&#58895;" d="M917.333333 40.106667000000016S519.68-103.67999999999995 421.546667-128c0 8.106667-13.226667 539.733333-13.226667 539.733333a139.093333 139.093333 0 0 1 21.333333 5.12c34.56 10.666667 416 98.56 482.133334 114.346667 5.546667-23.466667 5.546667-491.093333 5.546666-491.093333z m-273.066666 279.04l-4.266667 2.56v29.44a52.906667 52.906667 0 0 1-58.453333 53.333333 66.986667 66.986667 0 0 1-58.453334-69.12c0-53.333333 0-106.24 2.56-157.013333 2.56-39.68 0-79.786667 2.56-122.453334s26.453333-69.12 63.573334-64a60.586667 60.586667 0 0 1 52.906666 61.013334v53.333333c0 21.333333 0 23.893333 21.333334 10.666667 34.56-18.773333 66.133333-39.68 100.693333-55.893334a58.026667 58.026667 0 0 1 82.346667 61.013334c-2.56 26.453333-23.893333 34.56-42.666667 45.226666l-71.68 39.68c-15.786667 8.106667-15.786667 18.773333-2.56 29.44 15.786667 18.773333 34.56 37.12 50.346667 55.893334s34.56 37.12 47.786666 55.893333a53.333333 53.333333 0 0 1-32 85.333333 64.426667 64.426667 0 0 1-68.693333-26.453333 878.08 878.08 0 0 1-85.333333-87.893333zM230.826667 239.36s32 5.12 37.12 13.226667c34.56 39.68 68.693333 77.226667 103.253333 116.906666a512 512 0 0 0 34.56 45.226667c10.666667 8.106667 8.106667 0 8.106667-10.666667s5.12-469.333333 8.106666-526.506666c-8.106667-5.12-256 191.573333-256 191.573333s-15.786667 209.92-15.786666 213.333333 18.346667-8.106667 26.453333-10.666666c18.346667-10.666667 37.12-23.893333 55.466667-34.56z m15.786666 244.48a541.013333 541.013333 0 0 1-82.346666 34.56c-8.106667 2.56-18.346667 2.56-21.333334 15.786667C201.813333 544.853333 256 554.666667 315.733333 563.626667c47.786667 8.106667 92.586667 18.773333 140.373334 23.893333 0-26.453333 5.12-53.333333 29.013333-64a102.826667 102.826667 0 0 1 103.253333 10.666667 88.32 88.32 0 0 1 37.12 82.346666l18.346667 2.56c0-29.44 0-125.013333-2.56-148.906666-47.786667-13.226667-220.16-53.333333-222.72-53.333334-52.906667 23.893333-119.04 45.226667-170.666667 66.56zM622.933333 613.973333a78.933333 78.933333 0 0 0-37.12-82.346666 92.586667 92.586667 0 0 0-103.253333-10.666667 57.173333 57.173333 0 0 0-29.013333 64 108.8 108.8 0 0 0 90.026666 77.226667c13.226667 2.56 5.12 8.106667 0 13.226666-23.893333 23.893333-45.226667 47.786667-68.693333 74.24a264.533333 264.533333 0 0 0-26.453333 29.44 33.706667 33.706667 0 0 0 2.56 53.333334 109.226667 109.226667 0 0 0 29.013333 18.773333A189.866667 189.866667 0 0 1 554.666667 896a124.586667 124.586667 0 0 0 5.12-42.666667c0-42.666667-10.666667-55.893333-50.346667-64-18.346667-5.12-15.786667-10.666667-8.106667-23.893333C538.453333 725.333333 570.026667 682.666667 604.586667 640a95.573333 95.573333 0 0 0 18.346666-26.453333zM640 469.333333c0 53.333333 2.56 111.786667 2.56 148.906667 26.453333-2.56 209.493333-64 273.066667-82.346667 1.706667-6.826667-223.573333-54.613333-275.626667-66.56zM286.293333 664.746667c5.12 39.68 10.666667 77.226667 15.786667 114.346666 2.56 29.44 15.786667 37.12 45.226667 29.44a128 128 0 0 0 29.013333-10.666666 128 128 0 0 1 52.906667-18.773334C392.533333 733.866667 384 731.3066670000001 331.52 757.76l-21.333333-98.56c-2.56-10.666667-5.12-23.893333-8.106667-34.56A54.613333 54.613333 0 0 0 238.933333 579.413333 75.093333 75.093333 0 0 0 170.666667 632.746667 49.493333 49.493333 0 0 0 213.333333 691.2a78.08 78.08 0 0 0 72.96-26.453333zM917.333333 433.493333V534.613333c21.333333-32 44.8-65.28 64-101.12zM644.266667 319.146667c26.453333 32 55.466667 61.013333 82.346666 93.013333a64.426667 64.426667 0 0 0 68.693334 26.453333 53.333333 53.333333 0 0 0 32-85.333333A481.28 481.28 0 0 0 779.52 298.66666699999996a477.013333 477.013333 0 0 0-50.346667-53.333334c-10.666667-13.226667-10.666667-21.333333 2.56-29.44l71.68-39.68c18.346667-10.666667 39.68-21.333333 42.666667-45.226666a57.173333 57.173333 0 0 0-82.346667-61.013334c-34.56 15.786667-68.693333 37.12-100.693333 55.893334-21.333333 10.666667-21.333333 10.666667-21.333333-10.666667v-53.333333A63.146667 63.146667 0 0 0 588.8 0c-39.68-5.12-63.573333 18.773333-63.573333 64s0 79.786667-2.56 119.466667c-2.56 53.333333-2.56 106.24-2.56 157.013333a66.986667 66.986667 0 0 0 58.453333 69.12 50.346667 50.346667 0 0 0 58.453333-53.333333v-29.44l8.106667-8.106667zM138.24 534.613333L0.426667 366.93333299999995l251.733333-140.8 169.386667 191.146667-283.306667 117.333333z"  horiz-adv-x="1024" />

    
    <glyph glyph-name="yinleguan" unicode="&#58917;" d="M693.527273 188.509091c-4.654545 0-9.309091 0-9.309091 4.654545L325.818182 551.563636c-4.654545 4.654545-4.654545 13.963636 0 23.272728 4.654545 4.654545 13.963636 4.654545 23.272727 0l358.4-358.4c4.654545-4.654545 4.654545-13.963636 0-23.272728-4.654545 0-13.963636-4.654545-13.963636-4.654545zM549.236364 225.745455l-23.272728 83.781818-51.2 51.2 23.272728-69.818182c-23.272727 13.963636-51.2 18.618182-79.127273 18.618182-18.618182 0-37.236364-4.654545-55.854546-9.309091-41.890909-9.309091-74.472727-32.581818-102.4-60.509091-23.272727-27.927273-32.581818-65.163636-23.272727-97.745455 9.309091-27.927273 23.272727-51.2 51.2-60.509091 23.272727-18.618182 46.545455-23.272727 83.781818-23.272727 18.618182 0 37.236364 4.654545 55.854546 9.309091 37.236364 9.309091 74.472727 32.581818 102.4 60.509091 18.618182 23.272727 23.272727 60.509091 18.618182 97.745455z m-51.2-79.127273c-23.272727-23.272727-51.2-41.890909-83.781819-51.2-13.963636-4.654545-27.927273-4.654545-46.545454-4.654546-51.2 0-88.436364 23.272727-97.745455 55.854546-4.654545 23.272727 0 51.2 18.618182 65.163636 23.272727 23.272727 51.2 41.890909 83.781818 51.2 13.963636 4.654545 27.927273 4.654545 46.545455 4.654546 51.2 0 88.436364-23.272727 97.745454-55.854546 4.654545-18.618182 0-46.545455-18.618181-65.163636zM791.272727 505.018182c-4.654545 9.309091-9.309091 13.963636-18.618182 9.309091h-13.963636c-27.927273 0-55.854545 13.963636-74.472727 32.581818-23.272727 23.272727-41.890909 46.545455-60.509091 74.472727l-4.654546 4.654546c-18.618182 32.581818-51.2 83.781818-111.70909 83.781818-37.236364 0-74.472727-13.963636-102.4-32.581818-4.654545-4.654545-9.309091-9.309091-9.309091-18.618182l32.581818-130.327273 46.545454-51.2-46.545454 167.563636c32.581818 0 51.2-41.890909 74.472727-79.127272 4.654545-9.309091 9.309091-23.272727 18.618182-32.581818 13.963636-27.927273 32.581818-46.545455 55.854545-65.163637s55.854545-27.927273 83.781819-27.927273c41.890909 0 83.781818 13.963636 116.363636 37.236364 13.963636 9.309091 13.963636 18.618182 13.963636 27.927273z m-121.018182-27.927273c-46.545455 0-93.090909 32.581818-111.70909 74.472727l-13.963637 27.927273c-18.618182 37.236364-37.236364 69.818182-69.818182 93.090909 9.309091 4.654545 18.618182 4.654545 32.581819 4.654546 18.618182 0 37.236364-9.309091 51.2-23.272728s23.272727-27.927273 32.581818-46.545454l4.654545-4.654546c13.963636-32.581818 37.236364-60.509091 65.163637-83.781818 13.963636-13.963636 32.581818-23.272727 51.2-32.581818-18.618182-4.654545-27.927273-4.654545-41.89091-9.309091z"  horiz-adv-x="1024" />

    
    <glyph glyph-name="icon-test" unicode="&#58882;" d="M512-127.99898900000005a508.825859 508.825859 0 0 0-199.300347 40.239328 510.267041 510.267041 0 0 0-162.739827 109.732129 510.254399 510.254399 0 0 0-109.719487 162.727185A508.787933 508.787933 0 0 0 0.001011 384a508.787933 508.787933 0 0 0 40.239328 199.300347 510.254399 510.254399 0 0 0 109.732129 162.739827 510.279683 510.279683 0 0 0 162.727185 109.719487A508.800575 508.800575 0 0 0 512 895.998989c69.113542 0 136.166447-13.539529 199.300347-40.239328a510.254399 510.254399 0 0 0 162.739827-109.732129 510.254399 510.254399 0 0 0 109.719487-162.727185A508.813217 508.813217 0 0 0 1023.998989 384a508.838501 508.838501 0 0 0-40.239328-199.300347 510.292325 510.292325 0 0 0-109.732129-162.739827 510.229116 510.229116 0 0 0-162.727185-109.719487A508.813217 508.813217 0 0 0 512-127.99898900000005z m0 990.534735a476.980786 476.980786 0 0 1-338.374443-140.161303 476.955502 476.955502 0 0 1-102.564143-152.107947A475.51432 475.51432 0 0 1 33.464254 384a476.955502 476.955502 0 0 1 140.161303-338.374443 476.930218 476.930218 0 0 1 152.107947-102.564143A475.526962 475.526962 0 0 1 512-94.53574600000002a476.94286 476.94286 0 0 1 338.374443 140.161303 476.930218 476.930218 0 0 1 102.564143 152.107947A475.526962 475.526962 0 0 1 990.535746 384c0 64.600366-12.64195 127.279156-37.59716 186.266496a476.94286 476.94286 0 0 1-102.564143 152.107947A476.955502 476.955502 0 0 1 698.266496 824.951228 475.526962 475.526962 0 0 1 512 862.535746z m113.410936-190.324562l30.454459-7.484035c-13.602739-108.885118 144.295221-152.664192 91.148462-287.66758-4.980928-12.616666-16.927572-31.769221-29.417819-43.387173-13.754442-12.806296-20.189195-17.863076-33.614946-20.315614-7.205912-1.314763 7.180628 16.080561 11.92136 21.26376 18.684803 20.543169 26.889428 54.309819 24.487457 81.717567-3.805227 43.210186-54.941916 102.425082-91.325449 110.212523L569.015196 282.485139c-14.791082-60.1504-22.692301-84.119538-48.165831-106.609567-61.907631-54.651151-154.459349-60.289461-180.046656 10.17677-4.803941 13.22348-9.936573 37.875283-0.164346 57.925416 29.961422 61.604224 124.346224 85.699781 188.086937 35.245758l96.685636 392.975026z"  horiz-adv-x="1024" />

    
    <glyph glyph-name="zanting" unicode="&#58992;" d="M307.2 691.2a34.133333 34.133333 0 0 0 34.133333-34.133333v-546.133334a34.133333 34.133333 0 1 0-68.266666 0v546.133334a34.133333 34.133333 0 0 0 34.133333 34.133333z m409.6 0a34.133333 34.133333 0 0 0 34.133333-34.133333v-546.133334a34.133333 34.133333 0 1 0-68.266666 0v546.133334a34.133333 34.133333 0 0 0 34.133333 34.133333z"  horiz-adv-x="1024" />

    
    <glyph glyph-name="jia" unicode="&#58885;" d="M791.46666666 712.53333333h-537.6a51.2 51.2 0 0 1-51.2-51.2v-537.6a51.2 51.2 0 0 1 51.2-51.2h537.6a51.2 51.2 0 0 1 51.2 51.2V661.33333333a51.2 51.2 0 0 1-51.2 51.2z m12.8-576a25.6 25.6 0 0 0-25.6-25.6h-512a25.6 25.6 0 0 0-25.6 25.6V648.53333333a25.6 25.6 0 0 0 25.6 25.6h512a25.6 25.6 0 0 0 25.6-25.6v-512zM714.66666666 411.73333333h-384v-0.1664c-0.5376 0.0384-1.0496 0.1664-1.6 0.1664a19.2 19.2 0 0 1 0-38.4c0.5376 0 1.0624 0.1152 1.6 0.1792v-0.1792h384a19.2 19.2 0 0 1 0 38.4zM502.67306666 585.32693333v-384h0.1664c-0.0384-0.5376-0.1664-1.0496-0.1664-1.6a19.2 19.2 0 0 1 38.4 0c0 0.5376-0.1152 1.0624-0.1792 1.6h0.1792v384a19.2 19.2 0 0 1-38.4 0z"  horiz-adv-x="1024" />

    
    <glyph glyph-name="yinle" unicode="&#58900;" d="M432.5 514.3c-8.3 0-15-6.7-15-15v-372.4c0-8.3 6.7-15 15-15s15 6.7 15 15V499.3c0 8.3-6.7 15-15 15zM512.1 514.3c-8.3 0-15-6.7-15-15v-372.4c0-8.3 6.7-15 15-15s15 6.7 15 15V499.3c0 8.3-6.7 15-15 15zM591.1 514.3c-8.3 0-15-6.7-15-15v-372.4c0-8.3 6.7-15 15-15s15 6.7 15 15V499.3c0 8.3-6.7 15-15 15zM653.1 144.9h-278c-16.6 0-30-13.4-30-30s13.4-30 30-30h278c16.6 0 30 13.4 30 30s-13.4 30-30 30zM383.1 688.6h100.1v-170.3H347.3c-16.6 0-30-13.4-30-30s13.4-30 30-30h329.9c16.6 0 30 13.4 30 30s-13.4 30-30 30h-134V688.6h102.4c16.6 0 30 13.4 30 30s-13.4 30-30 30H543.2v23.6h59.1c16.6 0 30 13.4 30 30s-13.4 30-30 30H422.7c-16.6 0-30-13.4-30-30s13.4-30 30-30h60.5v-23.6H383.1c-16.6 0-30-13.4-30-30s13.4-30 30-30zM721.1 624.3c-2.7 2.3-4.3 5.6-4.3 9.2 0 6.6 5.4 12.1 12.1 12.1s12.1-5.4 12.1-12.1c0-16.6 13.4-30 30-30s30 13.4 30 30c0 39.7-32.3 72.1-72.1 72.1s-72.1-32.3-72.1-72.1c0-21.4 9.5-41.6 25.7-55.2 1-0.9 2.1-1.8 3.2-2.6 0.9-0.7 1.8-1.3 2.7-1.9 0.7-0.4 1.3-0.9 2-1.2 86.3-59 137.6-156.1 137.6-260.7 0-84.3-32.8-163.6-92.5-223.3s-138.9-92.5-223.3-92.5c-84.3 0-163.6 32.8-223.3 92.5-59.6 59.6-92.5 138.9-92.5 223.3 0 105.1 52.1 203 139.2 261.9 1 0.7 2 1.5 2.9 2.3 18 13.6 28.7 34.8 28.7 57.5 0 39.7-32.3 72.1-72.1 72.1S223 673.4 223 633.6c0-16.6 13.4-30 30-30s30 13.4 30 30c0 6.6 5.4 12.1 12.1 12.1s12.1-5.4 12.1-12.1c0-4-2-7.7-5.3-10l-2.4-1.8C197.3 551.5 136.4 436 136.4 311.9c0-50.7 9.9-99.9 29.5-146.3 18.9-44.8 46-84.9 80.5-119.4s74.7-61.6 119.4-80.5c46.3-19.6 95.6-29.5 146.3-29.5 50.7 0 99.9 9.9 146.3 29.5 44.8 18.9 84.9 46 119.4 80.5s61.6 74.7 80.5 119.4c19.6 46.3 29.5 95.6 29.5 146.3 0.3 125.8-62.1 242.4-166.7 312.4z"  horiz-adv-x="1024" />

    
    <glyph glyph-name="gengduo" unicode="&#59037;" d="M415.9 699.8c41.1 0 79.7-16 108.7-45s45-67.6 45-108.7-16-79.7-45-108.7-67.6-45-108.7-45-79.7 16-108.7 45-45 67.6-45 108.7 16 79.7 45 108.7 67.6 45 108.7 45m0 50c-112.5 0-203.7-91.2-203.7-203.7s91.2-203.7 203.7-203.7c112.5 0 203.7 91.2 203.7 203.7s-91.2 203.7-203.7 203.7zM733.8 24.1c-13.8 0-25 11.2-25 25 0 78.2-30.5 151.8-85.8 207.1S494.1 342 415.9 342c-78.2 0-151.8-30.5-207.1-85.8-55.3-55.3-85.8-128.9-85.8-207.1 0-13.8-11.2-25-25-25s-25 11.2-25 25c0 46.3 9.1 91.2 27 133.5 17.3 40.8 42 77.5 73.5 109s68.1 56.2 109 73.5c42.3 17.9 87.2 27 133.5 27s91.2-9.1 133.5-27c40.8-17.3 77.5-42 109-73.5s56.2-68.1 73.5-109c17.9-42.3 27-87.2 27-133.5-0.2-13.8-11.4-25-25.2-25zM923.1 590H707.5c-13.8 0-25 11.2-25 25s11.2 25 25 25h215.6c13.8 0 25-11.2 25-25s-11.2-25-25-25zM923.1 390.4H707.5c-13.8 0-25 11.2-25 25s11.2 25 25 25h215.6c13.8 0 25-11.2 25-25s-11.2-25-25-25zM923.1 193.2H819.4c-13.8 0-25 11.2-25 25s11.2 25 25 25h103.7c13.8 0 25-11.2 25-25s-11.2-25-25-25z"  horiz-adv-x="1024" />

    
    <glyph glyph-name="laba1" unicode="&#58967;" d="M534.755556-54.044444c-5.688889 0-11.377778 0-17.066667 5.688888L227.555556 156.444444H79.644444c-17.066667 0-28.444444 11.377778-28.444444 28.444445V543.288889c0 17.066667 11.377778 28.444444 28.444444 28.444444H227.555556L512 782.222222h34.133333c11.377778-5.688889 17.066667-17.066667 17.066667-22.755555v-779.377778c0-11.377778-5.688889-22.755556-17.066667-22.755556-5.688889-11.377778-5.688889-11.377778-11.377777-11.377777zM238.933333 213.333333c5.688889 0 11.377778 0 17.066667-5.688889l250.311111-182.044444V696.888889L256 520.533333h-5.688889c-5.688889 0-5.688889-5.688889-11.377778-5.688889H108.088889V213.333333h130.844444zM671.288889 82.488889c-5.688889 0-11.377778 0-17.066667 5.688889-11.377778 11.377778-11.377778 28.444444 0 39.822222 62.577778 68.266667 96.711111 153.6 96.711111 233.244444 0 85.333333-34.133333 164.977778-91.022222 233.244445-11.377778 11.377778-11.377778 28.444444 0 39.822222 11.377778 11.377778 28.444444 11.377778 39.822222 0C762.311111 554.666667 796.444444 463.644444 796.444444 366.933333c0-96.711111-39.822222-193.422222-108.088888-273.066666-5.688889-5.688889-11.377778-11.377778-17.066667-11.377778zM813.511111-19.911111c-5.688889 0-11.377778 0-17.066667 5.688889-11.377778 11.377778-17.066667 28.444444-5.688888 39.822222 79.644444 102.4 119.466667 216.177778 119.466666 335.644444 0 119.466667-39.822222 233.244444-119.466666 335.644445-11.377778 11.377778-5.688889 28.444444 5.688888 39.822222 11.377778 11.377778 28.444444 5.688889 39.822223-5.688889C921.6 622.933333 967.111111 497.777778 967.111111 366.933333c0-136.533333-45.511111-261.688889-130.844444-375.466666-5.688889-5.688889-17.066667-11.377778-22.755556-11.377778z"  horiz-adv-x="1024" />

    
    <glyph glyph-name="QQMusic" unicode="&#58887;" d="M512 360.487082m-488.487082 0a488.487082 488.487082 0 1 1 976.974164 0 488.487082 488.487082 0 1 1-976.974164 0ZM292.900741 65.777655a203.353051 163.278243 0 1 1 406.706103 0 203.353051 163.278243 0 1 1-406.706103 0ZM682.016485 98.617718L352.977488 718.394126l24.257672 5.319665 304.781325-591.475791v-33.620282zM352.977488 717.826695s92.207522 133.062548 182.570895 98.094618S729.680682 896 729.680682 896s52.274572-216.262104-298.681444-312.086999l-78.02175 133.913694"  horiz-adv-x="1024" />

    
    <glyph glyph-name="kugou" unicode="&#59086;" d="M256 896h512c141.38368 0 256-114.61632 256-256v-512c0-141.38368-114.61632-256-256-256H256C114.61632-128 0-13.38368 0 128V640C0 781.38368 114.61632 896 256 896z m236.1344-85.80096c-119.16288-4.68992-234.7008-62.84288-309.78048-155.38176a422.85056 422.85056 0 0 1-97.024-267.80672 422.42048 422.42048 0 0 1 50.00192-204.02176 429.6704 429.6704 0 0 1 137.37984-152.32 424.17152 424.17152 0 0 1 241.95072-73.29792 424.93952 424.93952 0 0 1 224.08192 65.10592 428.26752 428.26752 0 0 1 167.45472 198.26688c33.37216 79.69792 41.04192 169.63584 22.74304 253.98272-23.88992 112.29184-95.82592 213.11488-193.78176 272.88576A425.6256 425.6256 0 0 1 492.1344 810.15808v0.04096z m0.43008-53.03296a373.31968 373.31968 0 0 0 202.36288-47.26784 374.72256 374.72256 0 0 0 170.22976-203.56096c26.19392-74.752 27.05408-157.85984 3.71712-233.41056a373.9648 373.9648 0 0 0-136.96-190.976 371.52768 371.52768 0 0 0-222.9248-71.58784 370.3296 370.3296 0 0 0-210.24768 66.72384 372.45952 372.45952 0 0 0-143.73888 195.74784 376.68864 376.68864 0 0 0-1.3312 218.3168A374.59968 374.59968 0 0 0 295.3216 688.56832a370.97472 370.97472 0 0 0 197.20192 68.608h0.04096zM369.13152 586.42432c-13.94688-135.07584-26.74688-270.2848-40.86784-405.31968 33.28-0.47104 66.51904 0.13312 99.74784-0.33792 13.52704 135.33184 28.928 270.4896 42.06592 405.83168-33.61792-0.68608-67.2768-0.38912-100.94592-0.17408z m218.66496-27.392c-35.20512-34.816-72.15104-67.88096-106.57792-103.50592-18.86208-20.736-34.47808-48.3328-29.952-77.2608 1.40288-20.35712 12.75904-37.98016 24.18688-54.19008 33.49504-47.18592 64.90112-95.82592 98.12992-143.18592 42.752 0.21504 85.504-0.16384 128.256 0.17408-41.39008 52.69504-81.58208 106.36288-121.93792 159.86688-9.9328 13.824-22.39488 27.94496-23.59296 45.69088-1.71008 15.49312 9.29792 28.16 19.10784 38.656 54.272 53.76 108.88192 107.08992 162.89792 161.10592-40.448-0.512-80.896-0.21504-121.344-0.04096-9.89184-8.91904-19.4048-18.2272-29.184-27.31008z"  horiz-adv-x="1024" />

    
    <glyph glyph-name="baiduyinle" unicode="&#59087;" d="M256 896h512c141.38368 0 256-114.61632 256-256v-512c0-141.38368-114.61632-256-256-256H256C114.61632-128 0-13.38368 0 128V640C0 781.38368 114.61632 896 256 896z m677.59104-603.4944c-13.0048 46.336-43.60192 75.52-88.14592 88.40192-7.50592 2.17088-11.52 5.24288-12.45184 14.16192-10.2912 96.59392-53.89312 173.13792-130.68288 227.84-77.39392 55.11168-163.5328 69.70368-255.13984 53.57568-135.33184-23.808-237.38368-133.0176-255.4368-274.46272-1.792-13.98784-6.69696-18.944-19.10784-23.08096-47.14496-15.77984-77.35296-49.57184-85.32992-100.59776-7.9872-51.07712 8.52992-94.0032 49.1008-125.26592 26.03008-20.04992 55.88992-26.44992 84.992-24.7808h22.39488c12.50304 0.07168 13.312 0.83968 13.312 14.11072 0.04096 56.87296-0.08192 113.74592 0.13312 170.61888 0.08192 21.54496-0.3072 43.08992 1.91488 64.63488C274.1248 522.1376 405.48352 630.92736 543.4368 610.74432c113.152-16.51712 207.43168-104.82688 221.42976-235.34592 2.56-23.59296 1.65888-47.18592 1.792-70.81984 0.256-54.09792 0.04096-108.2368 0.12288-162.33472 0-13.18912 0.768-13.91616 13.48608-13.95712 12.15488-0.04096 24.32-0.2048 36.47488 0 81.74592 1.71008 139.776 82.55488 116.85888 164.25984v-0.04096z m-234.9568 67.19488c-8.52992-0.41984-17.05984-0.256-25.6-0.08192-7.168 0.17408-10.24-3.328-9.80992-10.62912 0.13312-3.072 0-6.144 0-9.216v-128.37888c-0.04096-13.0048-0.94208-13.90592-13.60896-13.94688-15.40096-0.08192-30.84288-0.2048-46.24384 0.08192-13.40416 0.256-19.712 6.61504-20.91008 20.57216-0.43008 4.43392-0.3072 8.9088-0.3072 13.35296 0 38.69696-0.12288 77.35296 0.1024 116.04992 0.07168 8.704-3.00032 12.62592-11.53024 12.19584-7.54688-0.41984-15.104 0-22.60992-0.08192-11.95008-0.13312-12.88192-1.024-12.88192-13.64992-0.0512-44.12416-0.09216-88.32 0.04096-132.43392 0.12288-40.96 22.31296-64.256 61.73696-64.63488 33.14688-0.256 66.29376-0.09216 99.40992 0 12.92288 0 13.64992 0.80896 13.69088 14.848v90.35776c0 31.15008-0.12288 62.28992 0.13312 93.44 0.08192 8.82688-3.16416 12.544-11.61216 12.15488z m-200.0896 117.54496c-9.17504-0.47104-18.35008 0-27.56608-0.08192-13.86496-0.09216-14.67392-0.86016-14.72512-14.98112-0.04096-29.77792-0.2048-59.55584 0.13312-89.2928 0.08192-9.64608-3.11296-13.568-12.5952-13.40416a378.73664 378.73664 0 0 1-46.19264-1.28c-50.09408-5.12-89.856-48.128-91.05408-98.97984-1.28-56.0128 34.56-101.75488 86.272-108.544 34.56-4.51584 69.45792-1.06496 104.23296-1.78176 13.43488-0.256 13.98784 0.512 13.98784 14.37696v148.8896h0.04096v75.95008c0 25.344-0.256 50.688 0.17408 75.9808 0.13312 9.82016-3.40992 13.66016-12.71808 13.14816z m-42.19904-187.00288c-0.38912-12.32896-0.09216-24.65792-0.09216-36.94592h-0.04096v-38.99392c0-6.18496-2.56-9.86112-8.704-9.90208-15.36-0.08192-30.84288-1.536-46.16192 0.94208a48.80384 48.80384 0 0 0-41.4208 50.59584c1.57696 26.96192 21.32992 46.46912 47.99488 46.98112 12.15488 0.256 24.32-0.256 36.43392 0.16384 9.04192 0.34816 12.288-3.7888 11.9808-12.84096z"  horiz-adv-x="1024" />

    
    <glyph glyph-name="xiamiyinle" unicode="&#59088;" d="M256 896h512c141.38368 0 256-114.61632 256-256v-512c0-141.38368-114.61632-256-256-256H256C114.61632-128 0-13.38368 0 128V640C0 781.38368 114.61632 896 256 896z m76.2368-131.10272c-3.13344-3.2768-4.8128-7.72096-4.63872-12.288-0.08192-60.24192 0-120.48384-0.04096-180.736h-49.0496a45.01504 45.01504 0 0 1-23.31648-6.5536c-15.33952-9.05216-25.1904-27.648-24.7808-46.55104l0.04096-242.55488c0.09216-21.504 13.91616-41.76896 32.70656-48.42496 8.93952-3.50208 18.54464-2.64192 27.82208-2.73408h36.53632V15.36c0-4.68992 1.60768-9.76896 5.14048-12.71808 3.7888-3.072 8.98048-3.328 13.28128-1.4848 8.00768 3.11296 14.12096 9.76896 20.65408 15.44192 27.51488 24.53504 54.9888 49.152 82.56512 73.6768 1.47456 1.37216 2.94912 3.1232 3.072 5.33504 0.17408 2.60096-1.4336 4.74112-2.69312 6.78912l-18.46272 28.20096c-1.47456 2.7648-4.7616 1.57696-6.656 0.04096-16.1792-12.11392-31.6928-25.22112-47.84128-37.376-0.16384 43.95008 0 87.88992-0.04096 131.7888 16.9472 0.09216 33.8944-0.08192 50.83136 0.09216 18.74944 0.47104 36.33152 14.20288 42.98752 33.18784 2.27328 6.31808 3.28704 13.1072 3.24608 19.88608V520.72448c-0.12288 21.03296-13.312 40.96-31.61088 47.95392a45.52704 45.52704 0 0 1-17.36704 3.20512h-48.04608c0 34.304-0.12288 68.5568 0.04096 102.81984 16.14848-12.15488 31.65184-25.25184 47.84128-37.376 1.8944-1.57696 5.18144-2.72384 6.656 0 6.61504 10.24 13.44512 20.35712 19.93728 30.63808a6.9632 6.9632 0 0 1-1.39264 9.25696l-87.92064 78.49984a51.1488 51.1488 0 0 1-16.4352 11.35616 12.6976 12.6976 0 0 1-13.06624-2.18112z m-43.93984-241.09056c2.37568 1.1264 5.0176 0.99328 7.53664 0.99328 12.288-0.09216 24.6272 0 36.9664 0V281.6h-39.8848c-6.06208-0.16384-11.53024 5.39648-11.30496 11.65312v219.8528c-0.11264 4.5056 2.5088 8.67328 6.72768 10.6496l-0.04096 0.0512z m82.944 0.98304h39.89504c6.05184 0.256 11.47904-5.38624 11.264-11.60192v-219.93472c0.21504-6.21568-5.21216-11.85792-11.264-11.64288l-39.936 0.04096V524.78976h0.04096z m102.4 103.55712c-0.08192-9.75872-0.03072-19.5584 0-29.31712-0.12288-6.18496 4.99712-11.68384 10.71104-11.60192 31.232-0.08192 62.48448 0 93.72672 0v-523.59168c-0.41984-6.18496 4.13696-12.16512 9.89184-12.50304 7.84384-0.26624 15.64672 0 23.4496-0.13312 3.19488 0.08192 6.6048-0.34816 9.54368 1.42336a12.1856 12.1856 0 0 1 5.79584 11.1616V587.39712c47.73888 0.08192 95.47776 0 143.2576 0.08192 5.75488-0.12288 10.83392 5.376 10.752 11.5712 0.08192 9.45152 0 18.90304 0 28.3648a12.288 12.288 0 0 1-5.21216 10.82368c-3.5328 2.4064-7.92576 1.6384-11.9296 1.72032H485.2736c-6.0416 0.512-11.76576-5.02784-11.63264-11.60192z m224.74752-167.76192a8.4992 8.4992 0 0 1-5.75488-4.99712c-1.88416-4.2496-1.35168-9.04192-1.39264-13.58848V294.8096c0-4.16768 0.73728-9.0112 3.98336-11.71456 3.00032-2.37568 7.0656-1.536 10.21952 0 4.8128 2.29376 8.41728 6.5024 12.35968 10.1376l62.08512 57.088c3.44064 3.1232 7.17824 6.08256 9.56416 10.37312 3.4816 5.75488 5.4272 13.17888 3.20512 19.88608-1.73056 6.00064-6.16448 10.3424-10.63936 13.95712-23.8592 20.92032-47.79008 41.6768-71.60832 62.68928a14.5408 14.5408 0 0 1-12.02176 3.3792z"  horiz-adv-x="1024" />

    
    <glyph glyph-name="danquxunhuan" unicode="&#60076;" d="M280.37644526 173.70977858000003c-127.93161454 0-231.62355474 103.6919402-231.62355476 231.62355474s103.6919402 231.62355474 231.62355476 231.62355474H512c8.75321574 0 16.15978289 5.38659431 19.52640434 12.79316146 3.36662143 8.07989145 1.34664858 16.83310717-4.71327003 22.89302575L421.77454553 777.68166406c-8.07989145 8.07989145-21.54637718 8.07989145-29.62626861 0-8.07989145-8.07989145-8.07989145-21.54637718 0-29.62626863l69.35240155-69.35240157H280.37644526C129.55180496 678.70299386 7.00678471 556.15797362 7.00678471 405.33333332c0-150.8246403 122.54502024-273.36966054 273.36966055-273.36966054 11.44651288 0 20.8730529 9.42654002 20.8730529 20.8730529 0.67332428 11.44651288-9.42654002 20.8730529-20.8730529 20.8730529z m463.24710948 504.99321528c-11.44651288 0-20.8730529-9.42654002-20.8730529-20.8730529 0-11.44651288 9.42654002-20.8730529 20.8730529-20.8730529 127.93161454 0 231.62355474-103.6919402 231.62355476-231.62355474s-103.6919402-231.62355474-231.62355476-231.62355474H512c-8.75321574 0-16.15978289-5.38659431-19.52640434-12.79316146-3.36662143-8.07989145-1.34664858-16.83310717 4.71327003-22.89302575l105.03858878-105.03858879c4.03994572-4.03994572 9.42654002-6.05991858 14.81313431-6.05991859s10.77318858 2.01997286 14.8131343 6.05991859c8.07989145 8.07989145 8.07989145 21.54637718 0 29.62626863l-69.35240155 69.35240157h180.45090892c150.8246403 0 273.36966054 122.54502024 273.36966055 273.36966054 0.67332428 150.8246403-121.87169595 273.36966054-272.69633626 273.36966054z m-189.20412465-420.8276794c11.44651288 0 20.8730529 9.42654002 20.8730529 20.8730529 0 11.44651288-9.42654002 20.8730529-20.8730529 20.87305289h-20.87305291V531.24497499c0 2.69329715-0.67332428 5.38659431-1.34664857 8.07989144-2.01997286 5.38659431-6.05991858 9.42654002-11.44651287 11.44651289-5.38659431 2.01997286-10.77318858 2.01997286-16.1597829 0-2.69329715-1.34664858-4.71327-2.69329715-6.73324287-4.71327001l-41.7461058-41.74610579c-8.07989145-8.07989145-8.07989145-21.54637718 0-29.62626864 4.03994572-4.03994572 9.42654002-6.05991858 14.81313432-6.05991857 5.38659431 0 10.77318858 2.01997286 14.81313431 6.05991857l6.05991859 6.05991859v-180.45090893h-20.8730529c-11.44651288 0-20.8730529-9.42654002-20.8730529-20.87305289 0-11.44651288 9.42654002-20.8730529 20.8730529-20.87305291h83.4922116z"  horiz-adv-x="1024" />

    
    <glyph glyph-name="ffanhui-" unicode="&#59057;" d="M398.259 583.168V810.652L0.007 412.497 398.259 14.18V247.498c284.4 0 483.565-91.004 625.735-290.15-56.838 284.472-227.502 568.82-625.735 625.82"  horiz-adv-x="1024" />

    
    <glyph glyph-name="music_active" unicode="&#58883;" d="M523.52-102.39999999999998C418.56-102.39999999999998 332.8-16.639999999999986 332.8 88.32000000000005s85.12 190.72 190.72 190.72c53.76 0 103.04-21.76 138.88-60.16V784c0 4.48 3.2 7.68 7.68 7.68h36.48c4.48 0 7.68-3.2 7.68-7.68v-21.12c23.04-5.12 37.76-16.64 52.48-28.16 17.92-14.08 34.56-27.52 68.48-27.52 30.08 0 46.72 10.88 60.8 21.76 17.92 13.44 40.96 16 61.44 6.4 19.84-9.6 32-29.44 32-51.84v-170.24c0-2.56-1.28-5.12-3.2-6.4-1.92-1.28-5.12-1.92-7.04-0.64-37.12 16.64-51.84 6.4-72.32-8.32-17.28-12.16-36.48-24.96-71.04-24.96-39.04 0-58.88 16-78.08 30.72-12.8 10.24-24.96 19.84-42.88 24.32v-439.68c-1.28-104.96-86.4-190.72-191.36-190.72z m0 366.08c-96.64 0-175.36-78.72-175.36-175.36 0-96.64 78.72-175.36 175.36-175.36 96.64 0 175.36 78.72 175.36 175.36V536.96c0 1.92 1.28 4.48 2.56 5.76 1.92 1.28 3.84 1.92 6.4 1.92 26.88-4.48 42.88-17.28 58.88-29.44 17.92-14.08 34.56-27.52 68.48-27.52 29.44 0 46.08 11.52 62.08 22.4 19.2 13.44 39.04 26.88 76.8 14.08V682.88c0 16.64-8.96 30.72-23.68 38.4-14.72 7.68-32 5.76-45.44-4.48-15.36-12.16-35.2-24.96-69.76-24.96-39.04 0-58.88 16-78.08 30.72-14.72 11.52-28.16 23.04-51.84 26.24-3.84 0.64-6.4 3.84-6.4 7.68v19.84h-21.12v-579.2c0-3.2-1.92-6.4-5.12-7.04-3.2-1.28-6.4 0-8.32 2.56-33.92 44.8-85.12 71.04-140.8 71.04zM943.36 565.76c-3.84 0-7.68 3.2-7.68 7.68s3.2 7.68 7.68 7.68h1.92c4.48 0 7.68-3.2 7.68-7.68s-3.2-7.68-7.68-7.68h-1.92zM843.52 524.1600000000001c-3.84 0-7.04 3.2-7.68 7.04 0 4.48 2.56 7.68 7.04 8.32h2.56c4.48 0.64 7.68-2.56 8.32-7.04 0.64-3.84-2.56-7.68-7.04-8.32-0.64 0.64-1.92 0-3.2 0z m-19.2 0c-1.92 0-2.56 0-3.84 0.64-3.84 0.64-7.04 3.84-7.04 8.32 0.64 4.48 4.48 7.04 8.32 7.04h2.56c4.48-0.64 7.04-3.84 7.04-8.32 0.64-4.48-3.2-7.68-7.04-7.68z m-21.12 4.48c-0.64 0-1.28 0-2.56 0.64s-1.92 0.64-3.2 1.28c-3.84 1.28-5.76 5.76-4.48 9.6 1.28 3.84 5.76 5.76 9.6 4.48 0.64 0 1.92-0.64 2.56-0.64 3.84-1.28 6.4-5.76 5.12-9.6-1.28-3.84-3.84-5.76-7.04-5.76z m61.44 0c-3.2 0-6.4 1.92-7.04 5.12-1.28 3.84 0.64 8.32 5.12 9.6 0.64 0 1.92 0.64 2.56 0.64 3.84 1.28 8.32-0.64 9.6-4.48 1.28-3.84-0.64-8.32-4.48-9.6-1.28-0.64-1.92-0.64-3.2-1.28h-2.56z m20.48 8.96c-2.56 0-5.12 1.28-6.4 3.84-1.92 3.84-0.64 8.32 2.56 10.24l2.56 1.28c3.84 1.92 8.32 1.28 10.24-2.56 1.92-3.84 1.28-8.32-2.56-10.24l-2.56-1.92c-1.28-0.64-2.56-0.64-3.84-0.64z m-102.4 0c-1.28 0-2.56 0.64-3.84 1.28-0.64 0.64-1.92 1.28-2.56 1.92-3.84 2.56-4.48 7.04-2.56 10.24 2.56 3.2 7.04 4.48 10.24 2.56 0.64-0.64 1.28-1.28 2.56-1.28 3.84-1.92 4.48-7.04 2.56-10.24-1.28-3.2-3.2-4.48-6.4-4.48z m120.32 12.16c-2.56 0-4.48 1.28-6.4 3.2-2.56 3.2-1.28 8.32 1.92 10.24l2.56 1.92c3.2 2.56 8.32 1.28 10.24-1.92 2.56-3.2 1.28-8.32-1.92-10.24l-2.56-1.92c-0.64-1.28-1.92-1.28-3.84-1.28z m-137.6 0.64c-1.92 0-3.2 0.64-4.48 1.92l-2.56 1.92c-3.2 2.56-3.84 7.68-1.28 10.88 2.56 3.2 7.68 3.84 10.88 1.28l2.56-1.92c3.2-2.56 3.84-7.04 1.28-10.88-1.92-2.56-4.48-3.2-6.4-3.2z m156.8 10.24c-3.2 0-5.76 1.92-7.04 4.48-1.92 3.84 0 8.32 3.84 10.24 1.28 0.64 1.92 0.64 3.2 1.28 3.84 1.28 8.32-0.64 9.6-4.48 1.28-3.84-0.64-8.32-4.48-9.6-0.64-0.64-1.92-0.64-2.56-1.28-0.64 0-1.92-0.64-2.56-0.64z m-174.72 3.2c-1.28 0-3.2 0.64-4.48 1.28-0.64 0.64-1.28 1.28-2.56 1.92-3.2 2.56-4.48 7.04-1.92 10.24 2.56 3.2 7.04 4.48 10.24 1.92 0.64-0.64 1.92-1.28 2.56-1.92 3.2-2.56 4.48-7.04 1.92-10.88-0.64-1.92-3.2-2.56-5.76-2.56z m-18.56 10.88c-1.28 0-1.92 0-3.2 0.64-0.64 0.64-1.92 0.64-2.56 1.28-3.84 1.28-5.76 5.76-4.48 9.6 1.28 3.84 5.76 5.76 9.6 4.48 1.28-0.64 1.92-0.64 3.2-1.28 3.84-1.92 5.76-6.4 3.84-10.24-0.64-3.2-3.84-4.48-6.4-4.48zM707.84 581.12h-2.56c-3.84 0.64-7.04 4.48-6.4 8.96 0.64 3.84 4.48 7.04 8.96 6.4h1.28c3.84-0.64 7.04-4.48 6.4-8.96-1.28-3.84-4.48-6.4-7.68-6.4zM943.36 622.72c-3.84 0-7.68 3.2-7.68 7.04 0 4.48 3.2 7.68 7.04 7.68h1.92c4.48 0 7.68-3.2 7.68-7.68s-3.2-7.68-7.68-7.68l-1.28 0.64zM843.52 581.12c-3.84 0-7.04 3.2-7.68 7.04 0 4.48 2.56 7.68 7.04 8.32h2.56c4.48 0.64 7.68-2.56 8.32-7.04 0.64-3.84-2.56-7.68-7.04-8.32h-3.2z m-19.2 0c-1.92 0-2.56 0-3.84 0.64-3.84 0.64-7.04 3.84-7.04 8.32 0.64 4.48 4.48 7.04 8.32 7.04h2.56c4.48-0.64 7.04-3.84 7.04-8.32 0.64-4.48-3.2-7.68-7.04-7.68z m-21.12 3.84c-0.64 0-1.28 0-2.56 0.64s-1.92 0.64-3.2 1.28c-3.84 1.28-5.76 5.76-4.48 9.6 1.28 3.84 5.76 5.76 9.6 4.48 0.64 0 1.92-0.64 2.56-0.64 3.84-1.28 6.4-5.76 5.12-9.6-1.28-3.2-3.84-5.76-7.04-5.76z m61.44 0c-3.2 0-6.4 1.92-7.04 5.12-1.28 3.84 0.64 8.32 5.12 9.6 0.64 0 1.92 0.64 2.56 0.64 3.84 1.28 8.32-0.64 9.6-4.48 1.28-3.84-0.64-8.32-4.48-9.6-1.28-0.64-1.92-0.64-3.2-1.28-0.64 0.64-1.28 0-2.56 0z m20.48 8.96c-2.56 0-5.12 1.28-6.4 3.84-1.92 3.84-0.64 8.32 2.56 10.24l2.56 1.28c3.84 1.92 8.32 1.28 10.24-2.56 1.92-3.84 1.28-8.32-2.56-10.24l-2.56-1.92c-1.28 0-2.56-0.64-3.84-0.64z m-102.4 0c-1.28 0-2.56 0.64-3.84 1.28-0.64 0.64-1.92 1.28-2.56 1.92-3.84 2.56-4.48 7.04-2.56 10.24 2.56 3.2 7.04 4.48 10.24 2.56 0.64-0.64 1.28-1.28 2.56-1.28 3.84-1.92 4.48-7.04 2.56-10.24-1.28-2.56-3.2-4.48-6.4-4.48z m120.32 12.16c-2.56 0-4.48 1.28-6.4 3.2-2.56 3.2-1.28 8.32 1.92 10.24l2.56 1.92c3.2 2.56 8.32 1.28 10.24-1.92 2.56-3.2 1.28-8.32-1.92-10.24l-2.56-1.92c-0.64-0.64-1.92-1.28-3.84-1.28z m-137.6 0.64c-1.92 0-3.2 0.64-4.48 1.92l-2.56 1.92c-3.2 2.56-3.84 7.68-1.28 10.88 2.56 3.2 7.68 3.84 10.88 1.28l2.56-1.92c3.2-2.56 3.84-7.04 1.28-10.88-1.92-1.92-4.48-3.2-6.4-3.2z m156.8 10.88c-3.2 0-5.76 1.92-7.04 4.48-1.92 3.84 0 8.32 3.84 10.24 1.28 0.64 1.92 0.64 3.2 1.28 3.84 1.28 8.32-0.64 9.6-4.48 1.28-3.84-0.64-8.32-4.48-9.6-0.64-0.64-1.92-0.64-2.56-1.28-0.64-0.64-1.92-0.64-2.56-0.64z m-174.72 2.56c-1.28 0-3.2 0.64-4.48 1.28-0.64 0.64-1.28 1.28-2.56 1.92-3.2 2.56-4.48 7.04-1.92 10.24 2.56 3.2 7.04 4.48 10.24 1.92 0.64-0.64 1.92-1.28 2.56-1.92 3.2-2.56 4.48-7.04 1.92-10.88-0.64-1.28-3.2-2.56-5.76-2.56z m-18.56 11.52c-1.28 0-1.92 0-3.2 0.64-0.64 0.64-1.92 0.64-2.56 1.28-3.84 1.28-5.76 5.76-4.48 9.6 1.28 3.84 5.76 5.76 9.6 4.48 1.28-0.64 1.92-0.64 3.2-1.28 3.84-1.92 5.76-6.4 3.84-10.24-0.64-3.2-3.84-4.48-6.4-4.48zM707.84 638.0799999999999h-2.56c-3.84 0.64-7.04 4.48-6.4 8.96 0.64 3.84 4.48 7.04 8.96 6.4h1.28c3.84-0.64 7.04-4.48 6.4-8.96-1.28-3.84-4.48-6.4-7.68-6.4zM977.92 686.72l3.2 7.04-3.2-7.04-1.28 0.64c-3.84 1.92-5.76 6.4-3.84 10.24 1.92 3.84 6.4 5.76 10.24 3.84l0.64-0.64-5.76-14.08zM933.12 668.8c-3.84 0-7.68 3.2-7.68 7.68s3.2 7.68 7.68 7.68h1.92c4.48 0 7.68-3.2 7.68-7.68 0-3.84-3.2-7.68-7.68-7.68h-1.92zM835.2 637.44c-4.48 0-7.68 3.2-7.68 7.68s3.2 7.68 7.68 7.68h2.56c3.84 0 7.68-3.2 7.68-7.68s-3.2-7.68-7.68-7.68h-2.56c0.64 0 0 0 0 0z m-17.28 1.28h-1.28c-1.28 0-1.92 0-3.2 0.64-3.84 0.64-7.04 4.48-6.4 8.96 0.64 3.84 4.48 7.04 8.96 6.4 0.64 0 1.92 0 2.56-0.64 3.84-0.64 7.04-4.48 6.4-8.32-0.64-4.48-3.84-7.04-7.04-7.04z m38.4 0.64c-3.84 0-7.04 2.56-7.68 6.4-0.64 3.84 1.92 8.32 6.4 8.96 0.64 0 1.92 0.64 2.56 0.64 3.84 0.64 8.32-1.92 8.96-5.76 0.64-3.84-1.92-8.32-5.76-8.96-1.28 0-1.92-0.64-3.2-0.64-0.64-0.64-0.64-0.64-1.28-0.64z m-58.88 4.48c-0.64 0-1.92 0-2.56 0.64-1.28 0.64-1.92 0.64-3.2 1.28-3.84 1.92-5.76 6.4-3.84 10.24 1.92 3.84 5.76 5.76 10.24 3.84 0.64-0.64 1.92-0.64 2.56-1.28 3.84-1.28 5.76-5.76 4.48-9.6-1.92-3.2-4.48-5.12-7.68-5.12z m78.72 1.28c-3.2 0-5.76 1.92-7.04 4.48-1.92 3.84 0 8.32 3.84 10.24 0.64 0.64 1.92 0.64 2.56 1.28 3.84 1.92 8.32 0 10.24-3.84 1.92-3.84 0-8.32-3.84-10.24-0.64-0.64-1.92-0.64-2.56-1.28-1.28-0.64-1.92-0.64-3.2-0.64z m-97.28 8.32c-1.28 0-2.56 0.64-3.84 1.28-0.64 0.64-1.92 1.28-2.56 1.92-3.2 2.56-4.48 7.04-1.92 10.24 2.56 3.2 7.04 4.48 10.24 1.92 0.64-0.64 1.28-1.28 2.56-1.28 3.2-2.56 4.48-7.04 1.92-10.24-1.28-2.56-3.84-3.84-6.4-3.84z m115.2 1.92c-2.56 0-5.12 1.28-6.4 3.2-2.56 3.84-1.28 8.32 2.56 10.24l2.56 1.28c3.84 1.92 8.32 1.28 10.24-2.56 1.92-3.84 1.28-8.32-2.56-10.24l-2.56-1.28c-0.64-0.64-1.92-0.64-3.84-0.64z m18.56 9.6c-3.2 0-5.76 1.92-7.04 4.48-1.28 3.84 0.64 8.32 4.48 9.6 1.28 0.64 1.92 0.64 3.2 1.28 3.84 1.28 8.32-0.64 9.6-5.12 1.28-3.84-0.64-8.32-5.12-9.6-0.64 0-1.28-0.64-2.56-0.64-0.64 0.64-1.92 0-2.56 0z m-150.4 0.64c-1.92 0-3.2 0.64-4.48 1.92l-2.56 1.92c-3.2 2.56-3.84 7.68-1.28 10.88 2.56 3.2 7.68 3.84 10.88 1.28l2.56-1.92c3.2-2.56 3.84-7.68 1.28-10.88-1.92-1.92-3.84-3.2-6.4-3.2z m-16 12.8c-1.28 0-3.2 0.64-4.48 1.28-0.64 0.64-1.28 1.28-2.56 1.28-3.2 2.56-4.48 7.04-1.92 10.24 2.56 3.2 7.04 4.48 10.24 1.92 0.64-0.64 1.92-1.28 2.56-1.92 3.2-2.56 4.48-7.04 1.92-10.24-1.28-1.28-3.84-2.56-5.76-2.56z m-18.56 10.24c-1.28 0-1.92 0-3.2 0.64-0.64 0.64-1.92 0.64-2.56 1.28-3.84 1.28-5.76 5.76-4.48 9.6 1.28 3.84 5.76 5.76 9.6 4.48 1.28-0.64 1.92-0.64 3.2-1.28 3.84-1.92 5.76-6.4 3.84-10.24-0.64-2.56-3.2-4.48-6.4-4.48zM707.84 694.4h-2.56c-3.84 0.64-7.04 4.48-6.4 8.96 0.64 3.84 4.48 7.04 8.96 6.4h1.28c3.84-0.64 7.04-4.48 6.4-8.96-1.28-3.84-4.48-6.4-7.68-6.4zM369.28 80.63999999999999c-4.48 0-7.68 3.2-7.68 7.68 0 88.96 72.32 161.28 161.28 161.28 4.48 0 7.68-3.2 7.68-7.68s-3.2-7.68-7.68-7.68c-80.64 0-145.92-65.28-145.92-145.92 0-4.48-3.2-7.68-7.68-7.68zM323.2-78.08000000000004c-2.56 0-5.76 0.64-8.32 1.92-144.64 69.12-238.08 217.6-238.08 377.6 0 230.4 187.52 417.92 417.92 417.92 30.72 0 61.44-3.2 90.88-9.6 10.24-1.92 16.64-12.16 14.08-22.4-1.92-10.24-12.16-16.64-22.4-14.08-26.88 5.76-55.04 8.96-82.56 8.96-209.92 0-380.8-170.88-380.8-380.8 0-145.92 85.12-280.96 216.96-343.68 9.6-4.48 13.44-15.36 8.96-24.96-3.2-7.04-9.6-10.88-16.64-10.88zM282.88 49.91999999999996c-3.84 0-7.68 1.28-10.88 3.84-69.76 62.72-109.44 152.96-109.44 247.04 0 183.68 149.12 332.8 332.8 332.8 30.72 0 61.44-4.48 90.88-12.8 8.32-2.56 13.44-11.52 10.88-19.84-2.56-8.32-11.52-13.44-19.84-10.88C550.4 597.76 522.88 601.6 494.72 601.6c-165.76 0-300.8-135.04-300.8-300.8 0-85.12 35.84-166.4 99.2-223.36 6.4-5.76 7.04-16 1.28-22.4-2.56-3.2-7.04-5.12-11.52-5.12zM289.92 161.91999999999996c-4.48 0-8.96 2.56-11.52 6.4-24.32 39.68-37.76 85.76-37.76 133.12 0 140.16 113.92 254.72 254.72 254.72 31.36 0 62.08-5.76 91.52-17.28 7.04-2.56 10.24-10.24 7.68-17.28-2.56-7.04-10.24-10.24-17.28-7.68-26.24 10.24-53.76 15.36-81.92 15.36-125.44 0-227.84-102.4-227.84-227.84 0-42.24 11.52-83.2 33.28-119.04 3.84-6.4 1.92-14.72-4.48-18.56-1.92-1.28-3.84-1.92-6.4-1.92zM332.16 234.88c-4.48 0-8.32 2.56-10.24 7.04-6.4 19.2-9.6 39.04-9.6 59.52 0 101.12 81.92 183.04 183.04 183.04 32.64 0 64-8.32 92.16-24.96 5.12-3.2 7.04-9.6 3.84-14.72-3.2-5.12-9.6-7.04-14.72-3.84-24.32 14.08-52.48 21.76-81.28 21.76-88.96 0-161.28-72.32-161.28-161.28 0-17.92 3.2-35.84 8.96-52.48 1.92-5.76-1.28-11.52-6.4-13.44-1.92-0.64-3.2-0.64-4.48-0.64z"  horiz-adv-x="1024" />

    
    <glyph glyph-name="gengduo1" unicode="&#58910;" d="M419.1 707.2V459H170.9V707.2h248.2m10.9 50H160c-21.6 0-39.1-17.5-39.1-39.1v-269.9c0-21.6 17.5-39.1 39.1-39.1h270c21.6 0 39.1 17.5 39.1 39.1V718.1c0 21.6-17.5 39.1-39.1 39.1zM865.1 707.2V459H616.9V707.2h248.2m10.9 50H606c-21.6 0-39.1-17.5-39.1-39.1v-269.9c0-21.6 17.5-39.1 39.1-39.1h270c21.6 0 39.1 17.5 39.1 39.1V718.1c0 21.6-17.5 39.1-39.1 39.1zM419.1 274v-248.2H170.9V274h248.2m10.9 50H160c-21.6 0-39.1-17.5-39.1-39.1V15c0-21.6 17.5-39.1 39.1-39.1h270c21.6 0 39.1 17.5 39.1 39.1V284.8c0 21.6-17.5 39.2-39.1 39.2zM737.1 274c33.1 0 64.3-12.9 87.7-36.3 23.4-23.4 36.3-54.6 36.3-87.7s-12.9-64.3-36.3-87.7c-23.4-23.4-54.6-36.3-87.7-36.3s-64.3 12.9-87.7 36.3c-23.4 23.4-36.3 54.6-36.3 87.7s12.9 64.3 36.3 87.7c23.4 23.3 54.5 36.3 87.7 36.3m0 50C640.9 324 563 246 563 149.9s77.9-174.1 174.1-174.1 174.1 77.9 174.1 174.1S833.2 324 737.1 324z"  horiz-adv-x="1024" />

    
    <glyph glyph-name="xiayishoubofang" unicode="&#59135;" d="M153.961412-41.863529l161.008941 102.942117a26.081882 26.081882 0 0 0 35.538823-7.28847c6.023529-9.396706 3.252706-21.805176-6.083764-27.828706L142.998588-102.701176l-2.951529-0.963765-2.349177-0.722824a23.913412 23.913412 0 0 0-9.396706-1.204706 24.816941 24.816941 0 0 0-7.228235 1.325177l-2.349176 1.14447a23.672471 23.672471 0 0 0-5.300706 3.433412l-2.108235 2.409412c-1.325176 1.385412-1.505882 1.626353-2.831059 3.855059a24.515765 24.515765 0 0 0-1.566118 4.638117l-0.843294 3.373177a39.755294 39.755294 0 0 1-0.662588 3.975529C105.411765 544.948706 105.472 858.292706 105.532235 858.533647A20.600471 20.600471 0 0 0 107.941647 870.098824C110.230588 873.773176 114.145882 876.784941 121.554824 879.917176A49.754353 49.754353 0 0 0 130.770824 880.941176c1.204706-0.120471 3.192471-0.542118 6.023529-1.445647l3.192471-0.903529c1.566118-0.602353 2.048-0.843294 2.650352-0.963765l742.038589-449.475764 7.890823-4.216471a26.744471 26.744471 0 0 0 13.793883-23.732706 26.744471 26.744471 0 0 0-13.974589-23.853176l-8.071529-5.300706-45.718588-29.214118a28.129882 28.129882 0 0 0-37.76753 7.168 19.034353 19.034353 0 0 0 5.782589 26.262588l38.490352 24.576L153.961412 817.694118V-41.863529z m693.36847 178.597647c13.552941 0 24.274824-10.420706 24.274824-23.130353 0-12.649412-10.721882-23.070118-24.274824-23.070118H661.865412v-180.404706c0-12.649412-10.782118-23.070118-24.274824-23.070117a23.732706 23.732706 0 0 0-24.274823 23.070117v180.404706H427.851294a23.732706 23.732706 0 0 0-24.274823 23.070118c0 12.649412 10.782118 23.130353 24.274823 23.130353h185.524706V317.138824c0 12.649412 10.721882 23.070118 24.214588 23.070117 13.492706 0 24.274824-10.420706 24.274824-23.070117v-180.344471h185.524706z"  horiz-adv-x="1024" />

    
    <glyph glyph-name="wangyiyunyinle" unicode="&#58890;" d="M116.93928297 888.83756247c-49.71026963-23.19812583-96.93502578-75.39390894-114.33362015-127.58969205-19.88410785-56.33830558-19.88410785-709.19984672 0-765.53815229 18.22709886-53.8527921 64.62335052-105.22007072 116.81913363-127.58969205l44.73924266-19.88410786h715.82788267l42.25372919 19.88410786c49.71026963 23.19812583 96.93502578 75.39390894 114.33362014 127.58969205 19.88410785 56.33830558 19.88410785 709.19984672 0 765.53815229-17.39859437 52.19578311-64.62335052 104.39156622-114.33362014 127.58969205l-42.25372919 19.88410784h-720.79890963l-42.25372918-19.88410784z m590.72370409-89.47848533c33.96868425-14.08457639 68.76587298-48.88176514 68.76587299-67.9373685s-22.36962133-46.39625165-38.11120672-46.39625166c-5.79953147 0-25.68363931 7.45654045-43.91073816 17.39859438-40.59672019 20.71261235-58.82381906 18.22709886-74.56540445-9.94205393-9.94205392-18.22709886-10.77055842-28.1691528-2.48551348-55.50980108 9.11354943-30.65466627 13.2560719-33.96868425 49.71026962-43.08223368 93.62100781-22.36962133 156.58734933-78.70792691 193.87005156-173.1574392 24.02663031-61.30933253 26.51214381-191.38453808 4.14252247-253.52237512-28.99765728-82.85044939-109.36259318-161.5583763-204.64060998-198.01257404-50.53877413-19.88410785-152.44482686-26.51214381-207.95462794-13.25607189-249.37985264 57.99531457-376.96954469 373.65552672-243.58032119 601.49426252 43.91073817 75.39390894 163.21538528 177.29996169 207.12612346 177.29996167 9.94205392 0 24.85513482-7.45654045 32.31167526-15.74158537 26.51214381-28.99765728 13.2560719-50.53877413-57.99531458-101.07754826-101.07754825-72.07989097-144.98828642-153.27333136-144.98828642-267.6069515 0-92.79250331 34.79718875-172.32893472 104.39156623-236.12378073 57.16681008-52.19578311 102.73455724-70.42288197 182.27098864-71.25138648 111.01960217 0 190.55603358 47.22475615 236.95228524 140.84576395 24.85513482 50.53877413 25.68363931 57.16681008 22.36962133 127.58969205-3.31401797 63.79484603-6.62803595 79.53643141-28.16915279 113.50511565-23.19812583 37.28270222-94.4495123 88.64998083-106.8770797 77.05091793-2.48551348-3.31401797 2.48551348-34.79718875 12.4275674-70.42288198 9.11354943-35.62569324 16.57008987-72.07989097 16.57008988-81.19344039 0-67.108864-52.19578311-136.70324148-115.16212464-154.10183585-106.8770797-28.99765728-193.87005155 53.02428761-193.87005156 183.09949313 0 90.30698983 44.73924267 158.24435831 127.58969205 195.52706055l29.82616178 13.25607189-3.31401797 71.25138649c-4.14252247 64.62335052-2.48551348 73.73689995 14.08457639 95.27801678 40.59672019 50.53877413 106.8770797 68.76587298 163.21538528 44.73924267zM514.62144 478.72783803c-26.51214381-16.57008987-53.02428761-67.9373685-53.02428761-105.22007072 0-31.48317076 21.54111683-75.39390894 41.4252247-86.16446736 36.45419773-19.88410785 91.13549431 14.08457639 91.13549432 56.33830558 0 12.42756741-6.62803595 51.36727861-14.08457639 86.99297186-16.57008987 70.42288197-22.36962133 74.56540445-65.45185502 48.05326064z"  horiz-adv-x="1028" />

    
    <glyph glyph-name="fanhui" unicode="&#58928;" d="M150.454 405.156h708.912v-45.736H150.454zM402.113 604.501L142.491 371.953l-32.307 33.466 259.621 232.548zM396.271 165.967L134.392 427.122l-36.163-32.521 264.275-260.783zM881.998 405.156h45.997v-45.736h-45.997z"  horiz-adv-x="1024" />

    
    <glyph glyph-name="sousuo" unicode="&#59023;" d="M403.261166 83.656943C179.387095 83.656943 0.287838 262.7562 0.287838 486.63027S179.387095 896 403.261166 896s402.973328-179.099257 402.973327-402.973328-179.099257-409.36973-402.973327-409.369729z m0 767.568243C204.972703 851.225186 45.062652 691.315135 45.062652 493.026672c0-198.288463 159.910051-358.198513 358.198514-358.198513C601.549628 128.431757 767.856081 288.341808 767.856081 486.63027S601.549628 851.225186 403.261166 851.225186zM639.60822 200.327316l30.70273 32.62165 349.691299-328.327316-30.70273-32.62165z"  horiz-adv-x="1024" />

    
    <glyph glyph-name="xunhuanbofang" unicode="&#58918;" d="M507.8 534L370.3 635.2l101.2 137.4 35.5-26-75.1-102.1 102-75.1zM511 87c-79.6 0-154.4 31-210.7 87.3C244 230.6 213 305.4 213 385h44c0-140.1 113.9-254 254-254s254 113.9 254 254-113.9 254-254 254c-25.8 0-51.2-3.8-75.5-11.4l-13.1 42C451 678.5 480.8 683 511 683c79.6 0 154.4-31 210.7-87.3C778 539.4 809 464.6 809 385s-31-154.4-87.3-210.7C665.4 118 590.6 87 511 87z"  horiz-adv-x="1024" />

    
    <glyph glyph-name="ZM-jingyin" unicode="&#59158;" d="M552.672 745.492h-1.636c-7.68 0-15.084-2.548-21.124-7.268v0.316L302.424 571.72H185.452c-22.628 0-40.988-18.36-40.988-40.988v-295.1c0-22.632 18.36-40.992 40.988-40.992h119.24l225.216-165.18v0.32a34.184 34.184 0 0 1 21.124-7.272h1.636a34.44 34.44 0 0 1 34.444 34.444v1.632c0 0.092-0.04 0.188-0.04 0.228h0.04V709.18h-0.04c0.04 0.092 0.04 0.136 0.04 0.228v1.636c0.004 19.04-15.448 34.448-34.44 34.448z m-14.768-625.196l-0.132 0.14a16.268 16.268 0 0 0-10.772-13.36 16.392 16.392 0 0 0-16.812 3.584l-189.492 128.244h-0.184c0.048 0.132 0.048 0.228 0.092 0.36a27.428 27.428 0 0 0-5.64 5.024H250.152a12.2 12.2 0 0 0-3.212-0.476H205.948a12.328 12.328 0 0 0-12.316 12.312V510.24a12.284 12.284 0 0 0 12.316 12.268h108a26.868 26.868 0 0 0 6.652 6.224c-0.048 0.136-0.048 0.228-0.092 0.364h0.184l189.492 128.24a16.384 16.384 0 0 0 16.812 3.588 16.26 16.26 0 0 0 10.772-13.36l0.132 0.136v-527.404zM680.832 273.04a24.18 24.18 0 0 0-34.196 34.196l187.732 187.728a24.176 24.176 0 1 0 34.192-34.192l-187.728-187.732zM868.556 307.236a24.18 24.18 0 0 0-34.192-34.196l-187.732 187.732a24.18 24.18 0 0 0 34.196 34.192l187.728-187.728z"  horiz-adv-x="1024" />

    
    <glyph glyph-name="gengduo2" unicode="&#58891;" d="M830.56 622.57H197.43c-14.82 0-26.85 12.03-26.85 26.85 0 14.82 12.03 26.85 26.85 26.85h633.13c14.82 0 26.85-12.03 26.85-26.85 0-14.82-12.03-26.85-26.85-26.85zM830.56 447.07H374.67c-14.82 0-26.85 12.03-26.85 26.85s12.03 26.85 26.85 26.85h455.88c14.82 0 26.85-12.03 26.85-26.85s-12.02-26.85-26.84-26.85zM830.56 271.56H374.67c-14.82 0-26.85 12.03-26.85 26.85s12.03 26.85 26.85 26.85h455.88c14.82 0 26.85-12.03 26.85-26.85s-12.02-26.85-26.84-26.85zM830.56 96.06H374.67c-14.82 0-26.85 12.03-26.85 26.85s12.03 26.85 26.85 26.85h455.88c14.82 0 26.85-12.03 26.85-26.85s-12.02-26.85-26.84-26.85z"  horiz-adv-x="1024" />

    
    <glyph glyph-name="gengduo3" unicode="&#58889;" d="M201.142857 365.714286m-54.857143 0a54.857143 54.857143 0 1 1 109.714286 0 54.857143 54.857143 0 1 1-109.714286 0ZM493.714286 365.714286m-54.857143 0a54.857143 54.857143 0 1 1 109.714286 0 54.857143 54.857143 0 1 1-109.714286 0ZM786.285714 365.714286m-54.857143 0a54.857143 54.857143 0 1 1 109.714286 0 54.857143 54.857143 0 1 1-109.714286 0Z"  horiz-adv-x="1024" />

    
    <glyph glyph-name="yinle1" unicode="&#58884;" d="M523.52-102.39999999999998C418.56-102.39999999999998 332.8-16.639999999999986 332.8 88.32000000000005s85.12 190.72 190.72 190.72c53.76 0 103.04-21.76 138.88-60.16V784c0 4.48 3.2 7.68 7.68 7.68h36.48c4.48 0 7.68-3.2 7.68-7.68v-21.12c23.04-5.12 37.76-16.64 52.48-28.16 17.92-14.08 34.56-27.52 68.48-27.52 30.08 0 46.72 10.88 60.8 21.76 17.92 13.44 40.96 16 61.44 6.4 19.84-9.6 32-29.44 32-51.84v-170.24c0-2.56-1.28-5.12-3.2-6.4-1.92-1.28-5.12-1.92-7.04-0.64-37.12 16.64-51.84 6.4-72.32-8.32-17.28-12.16-36.48-24.96-71.04-24.96-39.04 0-58.88 16-78.08 30.72-12.8 10.24-24.96 19.84-42.88 24.32v-439.68c-1.28-104.96-86.4-190.72-191.36-190.72z m0 366.08c-96.64 0-175.36-78.72-175.36-175.36 0-96.64 78.72-175.36 175.36-175.36 96.64 0 175.36 78.72 175.36 175.36V536.96c0 1.92 1.28 4.48 2.56 5.76 1.92 1.28 3.84 1.92 6.4 1.92 26.88-4.48 42.88-17.28 58.88-29.44 17.92-14.08 34.56-27.52 68.48-27.52 29.44 0 46.08 11.52 62.08 22.4 19.2 13.44 39.04 26.88 76.8 14.08V682.88c0 16.64-8.96 30.72-23.68 38.4-14.72 7.68-32 5.76-45.44-4.48-15.36-12.16-35.2-24.96-69.76-24.96-39.04 0-58.88 16-78.08 30.72-14.72 11.52-28.16 23.04-51.84 26.24-3.84 0.64-6.4 3.84-6.4 7.68v19.84h-21.12v-579.2c0-3.2-1.92-6.4-5.12-7.04-3.2-1.28-6.4 0-8.32 2.56-33.92 44.8-85.12 71.04-140.8 71.04zM943.36 565.76c-3.84 0-7.68 3.2-7.68 7.68s3.2 7.68 7.68 7.68h1.92c4.48 0 7.68-3.2 7.68-7.68s-3.2-7.68-7.68-7.68h-1.92zM843.52 524.1600000000001c-3.84 0-7.04 3.2-7.68 7.04 0 4.48 2.56 7.68 7.04 8.32h2.56c4.48 0.64 7.68-2.56 8.32-7.04 0.64-3.84-2.56-7.68-7.04-8.32-0.64 0.64-1.92 0-3.2 0z m-19.2 0c-1.92 0-2.56 0-3.84 0.64-3.84 0.64-7.04 3.84-7.04 8.32 0.64 4.48 4.48 7.04 8.32 7.04h2.56c4.48-0.64 7.04-3.84 7.04-8.32 0.64-4.48-3.2-7.68-7.04-7.68z m-21.12 4.48c-0.64 0-1.28 0-2.56 0.64s-1.92 0.64-3.2 1.28c-3.84 1.28-5.76 5.76-4.48 9.6 1.28 3.84 5.76 5.76 9.6 4.48 0.64 0 1.92-0.64 2.56-0.64 3.84-1.28 6.4-5.76 5.12-9.6-1.28-3.84-3.84-5.76-7.04-5.76z m61.44 0c-3.2 0-6.4 1.92-7.04 5.12-1.28 3.84 0.64 8.32 5.12 9.6 0.64 0 1.92 0.64 2.56 0.64 3.84 1.28 8.32-0.64 9.6-4.48 1.28-3.84-0.64-8.32-4.48-9.6-1.28-0.64-1.92-0.64-3.2-1.28h-2.56z m20.48 8.96c-2.56 0-5.12 1.28-6.4 3.84-1.92 3.84-0.64 8.32 2.56 10.24l2.56 1.28c3.84 1.92 8.32 1.28 10.24-2.56 1.92-3.84 1.28-8.32-2.56-10.24l-2.56-1.92c-1.28-0.64-2.56-0.64-3.84-0.64z m-102.4 0c-1.28 0-2.56 0.64-3.84 1.28-0.64 0.64-1.92 1.28-2.56 1.92-3.84 2.56-4.48 7.04-2.56 10.24 2.56 3.2 7.04 4.48 10.24 2.56 0.64-0.64 1.28-1.28 2.56-1.28 3.84-1.92 4.48-7.04 2.56-10.24-1.28-3.2-3.2-4.48-6.4-4.48z m120.32 12.16c-2.56 0-4.48 1.28-6.4 3.2-2.56 3.2-1.28 8.32 1.92 10.24l2.56 1.92c3.2 2.56 8.32 1.28 10.24-1.92 2.56-3.2 1.28-8.32-1.92-10.24l-2.56-1.92c-0.64-1.28-1.92-1.28-3.84-1.28z m-137.6 0.64c-1.92 0-3.2 0.64-4.48 1.92l-2.56 1.92c-3.2 2.56-3.84 7.68-1.28 10.88 2.56 3.2 7.68 3.84 10.88 1.28l2.56-1.92c3.2-2.56 3.84-7.04 1.28-10.88-1.92-2.56-4.48-3.2-6.4-3.2z m156.8 10.24c-3.2 0-5.76 1.92-7.04 4.48-1.92 3.84 0 8.32 3.84 10.24 1.28 0.64 1.92 0.64 3.2 1.28 3.84 1.28 8.32-0.64 9.6-4.48 1.28-3.84-0.64-8.32-4.48-9.6-0.64-0.64-1.92-0.64-2.56-1.28-0.64 0-1.92-0.64-2.56-0.64z m-174.72 3.2c-1.28 0-3.2 0.64-4.48 1.28-0.64 0.64-1.28 1.28-2.56 1.92-3.2 2.56-4.48 7.04-1.92 10.24 2.56 3.2 7.04 4.48 10.24 1.92 0.64-0.64 1.92-1.28 2.56-1.92 3.2-2.56 4.48-7.04 1.92-10.88-0.64-1.92-3.2-2.56-5.76-2.56z m-18.56 10.88c-1.28 0-1.92 0-3.2 0.64-0.64 0.64-1.92 0.64-2.56 1.28-3.84 1.28-5.76 5.76-4.48 9.6 1.28 3.84 5.76 5.76 9.6 4.48 1.28-0.64 1.92-0.64 3.2-1.28 3.84-1.92 5.76-6.4 3.84-10.24-0.64-3.2-3.84-4.48-6.4-4.48zM707.84 581.12h-2.56c-3.84 0.64-7.04 4.48-6.4 8.96 0.64 3.84 4.48 7.04 8.96 6.4h1.28c3.84-0.64 7.04-4.48 6.4-8.96-1.28-3.84-4.48-6.4-7.68-6.4zM943.36 622.72c-3.84 0-7.68 3.2-7.68 7.04 0 4.48 3.2 7.68 7.04 7.68h1.92c4.48 0 7.68-3.2 7.68-7.68s-3.2-7.68-7.68-7.68l-1.28 0.64zM843.52 581.12c-3.84 0-7.04 3.2-7.68 7.04 0 4.48 2.56 7.68 7.04 8.32h2.56c4.48 0.64 7.68-2.56 8.32-7.04 0.64-3.84-2.56-7.68-7.04-8.32h-3.2z m-19.2 0c-1.92 0-2.56 0-3.84 0.64-3.84 0.64-7.04 3.84-7.04 8.32 0.64 4.48 4.48 7.04 8.32 7.04h2.56c4.48-0.64 7.04-3.84 7.04-8.32 0.64-4.48-3.2-7.68-7.04-7.68z m-21.12 3.84c-0.64 0-1.28 0-2.56 0.64s-1.92 0.64-3.2 1.28c-3.84 1.28-5.76 5.76-4.48 9.6 1.28 3.84 5.76 5.76 9.6 4.48 0.64 0 1.92-0.64 2.56-0.64 3.84-1.28 6.4-5.76 5.12-9.6-1.28-3.2-3.84-5.76-7.04-5.76z m61.44 0c-3.2 0-6.4 1.92-7.04 5.12-1.28 3.84 0.64 8.32 5.12 9.6 0.64 0 1.92 0.64 2.56 0.64 3.84 1.28 8.32-0.64 9.6-4.48 1.28-3.84-0.64-8.32-4.48-9.6-1.28-0.64-1.92-0.64-3.2-1.28-0.64 0.64-1.28 0-2.56 0z m20.48 8.96c-2.56 0-5.12 1.28-6.4 3.84-1.92 3.84-0.64 8.32 2.56 10.24l2.56 1.28c3.84 1.92 8.32 1.28 10.24-2.56 1.92-3.84 1.28-8.32-2.56-10.24l-2.56-1.92c-1.28 0-2.56-0.64-3.84-0.64z m-102.4 0c-1.28 0-2.56 0.64-3.84 1.28-0.64 0.64-1.92 1.28-2.56 1.92-3.84 2.56-4.48 7.04-2.56 10.24 2.56 3.2 7.04 4.48 10.24 2.56 0.64-0.64 1.28-1.28 2.56-1.28 3.84-1.92 4.48-7.04 2.56-10.24-1.28-2.56-3.2-4.48-6.4-4.48z m120.32 12.16c-2.56 0-4.48 1.28-6.4 3.2-2.56 3.2-1.28 8.32 1.92 10.24l2.56 1.92c3.2 2.56 8.32 1.28 10.24-1.92 2.56-3.2 1.28-8.32-1.92-10.24l-2.56-1.92c-0.64-0.64-1.92-1.28-3.84-1.28z m-137.6 0.64c-1.92 0-3.2 0.64-4.48 1.92l-2.56 1.92c-3.2 2.56-3.84 7.68-1.28 10.88 2.56 3.2 7.68 3.84 10.88 1.28l2.56-1.92c3.2-2.56 3.84-7.04 1.28-10.88-1.92-1.92-4.48-3.2-6.4-3.2z m156.8 10.88c-3.2 0-5.76 1.92-7.04 4.48-1.92 3.84 0 8.32 3.84 10.24 1.28 0.64 1.92 0.64 3.2 1.28 3.84 1.28 8.32-0.64 9.6-4.48 1.28-3.84-0.64-8.32-4.48-9.6-0.64-0.64-1.92-0.64-2.56-1.28-0.64-0.64-1.92-0.64-2.56-0.64z m-174.72 2.56c-1.28 0-3.2 0.64-4.48 1.28-0.64 0.64-1.28 1.28-2.56 1.92-3.2 2.56-4.48 7.04-1.92 10.24 2.56 3.2 7.04 4.48 10.24 1.92 0.64-0.64 1.92-1.28 2.56-1.92 3.2-2.56 4.48-7.04 1.92-10.88-0.64-1.28-3.2-2.56-5.76-2.56z m-18.56 11.52c-1.28 0-1.92 0-3.2 0.64-0.64 0.64-1.92 0.64-2.56 1.28-3.84 1.28-5.76 5.76-4.48 9.6 1.28 3.84 5.76 5.76 9.6 4.48 1.28-0.64 1.92-0.64 3.2-1.28 3.84-1.92 5.76-6.4 3.84-10.24-0.64-3.2-3.84-4.48-6.4-4.48zM707.84 638.0799999999999h-2.56c-3.84 0.64-7.04 4.48-6.4 8.96 0.64 3.84 4.48 7.04 8.96 6.4h1.28c3.84-0.64 7.04-4.48 6.4-8.96-1.28-3.84-4.48-6.4-7.68-6.4zM977.92 686.72l3.2 7.04-3.2-7.04-1.28 0.64c-3.84 1.92-5.76 6.4-3.84 10.24 1.92 3.84 6.4 5.76 10.24 3.84l0.64-0.64-5.76-14.08zM933.12 668.8c-3.84 0-7.68 3.2-7.68 7.68s3.2 7.68 7.68 7.68h1.92c4.48 0 7.68-3.2 7.68-7.68 0-3.84-3.2-7.68-7.68-7.68h-1.92zM835.2 637.44c-4.48 0-7.68 3.2-7.68 7.68s3.2 7.68 7.68 7.68h2.56c3.84 0 7.68-3.2 7.68-7.68s-3.2-7.68-7.68-7.68h-2.56c0.64 0 0 0 0 0z m-17.28 1.28h-1.28c-1.28 0-1.92 0-3.2 0.64-3.84 0.64-7.04 4.48-6.4 8.96 0.64 3.84 4.48 7.04 8.96 6.4 0.64 0 1.92 0 2.56-0.64 3.84-0.64 7.04-4.48 6.4-8.32-0.64-4.48-3.84-7.04-7.04-7.04z m38.4 0.64c-3.84 0-7.04 2.56-7.68 6.4-0.64 3.84 1.92 8.32 6.4 8.96 0.64 0 1.92 0.64 2.56 0.64 3.84 0.64 8.32-1.92 8.96-5.76 0.64-3.84-1.92-8.32-5.76-8.96-1.28 0-1.92-0.64-3.2-0.64-0.64-0.64-0.64-0.64-1.28-0.64z m-58.88 4.48c-0.64 0-1.92 0-2.56 0.64-1.28 0.64-1.92 0.64-3.2 1.28-3.84 1.92-5.76 6.4-3.84 10.24 1.92 3.84 5.76 5.76 10.24 3.84 0.64-0.64 1.92-0.64 2.56-1.28 3.84-1.28 5.76-5.76 4.48-9.6-1.92-3.2-4.48-5.12-7.68-5.12z m78.72 1.28c-3.2 0-5.76 1.92-7.04 4.48-1.92 3.84 0 8.32 3.84 10.24 0.64 0.64 1.92 0.64 2.56 1.28 3.84 1.92 8.32 0 10.24-3.84 1.92-3.84 0-8.32-3.84-10.24-0.64-0.64-1.92-0.64-2.56-1.28-1.28-0.64-1.92-0.64-3.2-0.64z m-97.28 8.32c-1.28 0-2.56 0.64-3.84 1.28-0.64 0.64-1.92 1.28-2.56 1.92-3.2 2.56-4.48 7.04-1.92 10.24 2.56 3.2 7.04 4.48 10.24 1.92 0.64-0.64 1.28-1.28 2.56-1.28 3.2-2.56 4.48-7.04 1.92-10.24-1.28-2.56-3.84-3.84-6.4-3.84z m115.2 1.92c-2.56 0-5.12 1.28-6.4 3.2-2.56 3.84-1.28 8.32 2.56 10.24l2.56 1.28c3.84 1.92 8.32 1.28 10.24-2.56 1.92-3.84 1.28-8.32-2.56-10.24l-2.56-1.28c-0.64-0.64-1.92-0.64-3.84-0.64z m18.56 9.6c-3.2 0-5.76 1.92-7.04 4.48-1.28 3.84 0.64 8.32 4.48 9.6 1.28 0.64 1.92 0.64 3.2 1.28 3.84 1.28 8.32-0.64 9.6-5.12 1.28-3.84-0.64-8.32-5.12-9.6-0.64 0-1.28-0.64-2.56-0.64-0.64 0.64-1.92 0-2.56 0z m-150.4 0.64c-1.92 0-3.2 0.64-4.48 1.92l-2.56 1.92c-3.2 2.56-3.84 7.68-1.28 10.88 2.56 3.2 7.68 3.84 10.88 1.28l2.56-1.92c3.2-2.56 3.84-7.68 1.28-10.88-1.92-1.92-3.84-3.2-6.4-3.2z m-16 12.8c-1.28 0-3.2 0.64-4.48 1.28-0.64 0.64-1.28 1.28-2.56 1.28-3.2 2.56-4.48 7.04-1.92 10.24 2.56 3.2 7.04 4.48 10.24 1.92 0.64-0.64 1.92-1.28 2.56-1.92 3.2-2.56 4.48-7.04 1.92-10.24-1.28-1.28-3.84-2.56-5.76-2.56z m-18.56 10.24c-1.28 0-1.92 0-3.2 0.64-0.64 0.64-1.92 0.64-2.56 1.28-3.84 1.28-5.76 5.76-4.48 9.6 1.28 3.84 5.76 5.76 9.6 4.48 1.28-0.64 1.92-0.64 3.2-1.28 3.84-1.92 5.76-6.4 3.84-10.24-0.64-2.56-3.2-4.48-6.4-4.48zM707.84 694.4h-2.56c-3.84 0.64-7.04 4.48-6.4 8.96 0.64 3.84 4.48 7.04 8.96 6.4h1.28c3.84-0.64 7.04-4.48 6.4-8.96-1.28-3.84-4.48-6.4-7.68-6.4zM369.28 80.63999999999999c-4.48 0-7.68 3.2-7.68 7.68 0 88.96 72.32 161.28 161.28 161.28 4.48 0 7.68-3.2 7.68-7.68s-3.2-7.68-7.68-7.68c-80.64 0-145.92-65.28-145.92-145.92 0-4.48-3.2-7.68-7.68-7.68zM323.2-78.08000000000004c-2.56 0-5.76 0.64-8.32 1.92-144.64 69.12-238.08 217.6-238.08 377.6 0 230.4 187.52 417.92 417.92 417.92 30.72 0 61.44-3.2 90.88-9.6 10.24-1.92 16.64-12.16 14.08-22.4-1.92-10.24-12.16-16.64-22.4-14.08-26.88 5.76-55.04 8.96-82.56 8.96-209.92 0-380.8-170.88-380.8-380.8 0-145.92 85.12-280.96 216.96-343.68 9.6-4.48 13.44-15.36 8.96-24.96-3.2-7.04-9.6-10.88-16.64-10.88zM282.88 49.91999999999996c-3.84 0-7.68 1.28-10.88 3.84-69.76 62.72-109.44 152.96-109.44 247.04 0 183.68 149.12 332.8 332.8 332.8 30.72 0 61.44-4.48 90.88-12.8 8.32-2.56 13.44-11.52 10.88-19.84-2.56-8.32-11.52-13.44-19.84-10.88C550.4 597.76 522.88 601.6 494.72 601.6c-165.76 0-300.8-135.04-300.8-300.8 0-85.12 35.84-166.4 99.2-223.36 6.4-5.76 7.04-16 1.28-22.4-2.56-3.2-7.04-5.12-11.52-5.12zM289.92 161.91999999999996c-4.48 0-8.96 2.56-11.52 6.4-24.32 39.68-37.76 85.76-37.76 133.12 0 140.16 113.92 254.72 254.72 254.72 31.36 0 62.08-5.76 91.52-17.28 7.04-2.56 10.24-10.24 7.68-17.28-2.56-7.04-10.24-10.24-17.28-7.68-26.24 10.24-53.76 15.36-81.92 15.36-125.44 0-227.84-102.4-227.84-227.84 0-42.24 11.52-83.2 33.28-119.04 3.84-6.4 1.92-14.72-4.48-18.56-1.92-1.28-3.84-1.92-6.4-1.92zM332.16 234.88c-4.48 0-8.32 2.56-10.24 7.04-6.4 19.2-9.6 39.04-9.6 59.52 0 101.12 81.92 183.04 183.04 183.04 32.64 0 64-8.32 92.16-24.96 5.12-3.2 7.04-9.6 3.84-14.72-3.2-5.12-9.6-7.04-14.72-3.84-24.32 14.08-52.48 21.76-81.28 21.76-88.96 0-161.28-72.32-161.28-161.28 0-17.92 3.2-35.84 8.96-52.48 1.92-5.76-1.28-11.52-6.4-13.44-1.92-0.64-3.2-0.64-4.48-0.64z"  horiz-adv-x="1024" />

    
    <glyph glyph-name="yinle2" unicode="&#59527;" d="M614.399946 573.601315V849.434433A46.403344 46.403344 0 0 0 660.964974 895.999461h255.999865a46.565028 46.565028 0 0 0 0-93.076161h-209.488731V386.155519c0-8.35368-2.155788-16.168413-6.036208-22.959146-21.989041-83.860166-100.837-145.515713-194.074845-145.515713-110.052995 0-200.164947 85.854271-200.164947 192.889162 0 107.034891 90.111953 192.835267 200.164947 192.835267 39.289242 0 75.991539-10.940626 107.034891-29.857669zM474.327599 894.921567a46.565028 46.565028 0 1 0 6.036207-92.914478c-217.195675-13.958729-387.287375-194.883266-387.287375-413.911361 0-229.052511 185.505587-414.665887 414.288624-414.665887 228.729143 0 414.234729 185.667271 414.234729 414.719782a413.156835 413.156835 0 0 1-102.184367 272.707225 46.565028 46.565028 0 1 0 70.170911 61.224389 506.232997 506.232997 0 0 0 125.089618-333.931614c0-280.468063-227.112302-507.849838-507.310891-507.849838-280.252484 0-507.364786 227.43567-507.364786 507.849838C0.000269 656.329692 208.303318 877.836944 474.327599 894.921567z m33.037456-584.164745c59.553653 0 107.034891 45.163766 107.034891 99.759105 0 54.541445-47.427343 99.705211-107.034891 99.705211-59.607548 0-107.088786-45.109871-107.088786-99.705211 0-54.541445 47.481238-99.705211 107.088786-99.705211z"  horiz-adv-x="1024" />

    
    <glyph glyph-name="loop" unicode="&#58911;" d="M629.285 146.28599999999994l41.947-41.911a18.286 18.286 0 0 0-25.893-25.893l-73.142 73.143a18.286 18.286 0 0 0 0 25.893l73.142 73.143a18.286 18.286 0 0 0 25.893-25.893l-41.947-41.91h65.572a201.143 201.143 0 0 1 0 402.285H548.571a18.286 18.286 0 1 0 0 36.571h146.286a237.714 237.714 0 1 0 0-475.428h-65.572z m-234.57 475.428l-41.947 41.911a18.286 18.286 0 1 0 25.893 25.893l73.142-73.143a18.286 18.286 0 0 0 0-25.893l-73.142-73.143a18.286 18.286 0 0 0-25.893 25.893l41.947 41.91h-65.572a201.143 201.143 0 0 1 0-402.285h146.286a18.286 18.286 0 1 0 0-36.571H329.143a237.714 237.714 0 1 0 0 475.428h65.572z"  horiz-adv-x="1024" />

    
    <glyph glyph-name="sousuo1" unicode="&#59033;" d="M825.3 103.1L605.1 323.2c-4.8 4.8-5.1 12.2-1.1 17.6 36.1 48.8 54.2 111.7 40.6 179.9-18.5 92.9-96.1 167.1-189.8 180.7-153 22.2-282.4-107.3-260.2-260.3 13.6-93.7 87.9-171.3 180.7-189.8 68.3-13.6 131.1 4.5 179.9 40.6 5.4 4 12.8 3.7 17.6-1.1l220.1-220.1c8.9-8.9 23.4-8.9 32.3 0 9 9 9 23.4 0.1 32.4zM420.6 292.6c-101 0-182.8 81.9-182.8 182.8 0 101 81.9 182.8 182.8 182.8s182.8-81.9 182.8-182.8c0-101-81.8-182.8-182.8-182.8z"  horiz-adv-x="1024" />

    
    <glyph glyph-name="gengduo4" unicode="&#59056;" d="M76.8 665.6c14.336 0 25.6-11.264 25.6-25.6s-11.264-25.6-25.6-25.6-25.6 11.264-25.6 25.6 11.264 25.6 25.6 25.6z m112.64 0h757.76c14.336 0 25.6-11.264 25.6-25.6s-11.264-25.6-25.6-25.6H189.44c-14.336 0-25.6 11.264-25.6 25.6s11.264 25.6 25.6 25.6zM76.8 409.6c14.336 0 25.6-11.264 25.6-25.6s-11.264-25.6-25.6-25.6-25.6 11.264-25.6 25.6 11.264 25.6 25.6 25.6z m112.64 0h757.76c14.336 0 25.6-11.264 25.6-25.6s-11.264-25.6-25.6-25.6H189.44c-14.336 0-25.6 11.264-25.6 25.6s11.264 25.6 25.6 25.6z m-112.64-256c14.336 0 25.6-11.264 25.6-25.6s-11.264-25.6-25.6-25.6-25.6 11.264-25.6 25.6 11.264 25.6 25.6 25.6z m112.64 0h757.76c14.336 0 25.6-11.264 25.6-25.6s-11.264-25.6-25.6-25.6H189.44c-14.336 0-25.6 11.264-25.6 25.6s11.264 25.6 25.6 25.6z"  horiz-adv-x="1024" />

    
    <glyph glyph-name="yinle1-copy" unicode="&#60077;" d="M523.52-102.39999999999998C418.56-102.39999999999998 332.8-16.639999999999986 332.8 88.32000000000005s85.12 190.72 190.72 190.72c53.76 0 103.04-21.76 138.88-60.16V784c0 4.48 3.2 7.68 7.68 7.68h36.48c4.48 0 7.68-3.2 7.68-7.68v-21.12c23.04-5.12 37.76-16.64 52.48-28.16 17.92-14.08 34.56-27.52 68.48-27.52 30.08 0 46.72 10.88 60.8 21.76 17.92 13.44 40.96 16 61.44 6.4 19.84-9.6 32-29.44 32-51.84v-170.24c0-2.56-1.28-5.12-3.2-6.4-1.92-1.28-5.12-1.92-7.04-0.64-37.12 16.64-51.84 6.4-72.32-8.32-17.28-12.16-36.48-24.96-71.04-24.96-39.04 0-58.88 16-78.08 30.72-12.8 10.24-24.96 19.84-42.88 24.32v-439.68c-1.28-104.96-86.4-190.72-191.36-190.72z m0 366.08c-96.64 0-175.36-78.72-175.36-175.36 0-96.64 78.72-175.36 175.36-175.36 96.64 0 175.36 78.72 175.36 175.36V536.96c0 1.92 1.28 4.48 2.56 5.76 1.92 1.28 3.84 1.92 6.4 1.92 26.88-4.48 42.88-17.28 58.88-29.44 17.92-14.08 34.56-27.52 68.48-27.52 29.44 0 46.08 11.52 62.08 22.4 19.2 13.44 39.04 26.88 76.8 14.08V682.88c0 16.64-8.96 30.72-23.68 38.4-14.72 7.68-32 5.76-45.44-4.48-15.36-12.16-35.2-24.96-69.76-24.96-39.04 0-58.88 16-78.08 30.72-14.72 11.52-28.16 23.04-51.84 26.24-3.84 0.64-6.4 3.84-6.4 7.68v19.84h-21.12v-579.2c0-3.2-1.92-6.4-5.12-7.04-3.2-1.28-6.4 0-8.32 2.56-33.92 44.8-85.12 71.04-140.8 71.04zM943.36 565.76c-3.84 0-7.68 3.2-7.68 7.68s3.2 7.68 7.68 7.68h1.92c4.48 0 7.68-3.2 7.68-7.68s-3.2-7.68-7.68-7.68h-1.92zM843.52 524.1600000000001c-3.84 0-7.04 3.2-7.68 7.04 0 4.48 2.56 7.68 7.04 8.32h2.56c4.48 0.64 7.68-2.56 8.32-7.04 0.64-3.84-2.56-7.68-7.04-8.32-0.64 0.64-1.92 0-3.2 0z m-19.2 0c-1.92 0-2.56 0-3.84 0.64-3.84 0.64-7.04 3.84-7.04 8.32 0.64 4.48 4.48 7.04 8.32 7.04h2.56c4.48-0.64 7.04-3.84 7.04-8.32 0.64-4.48-3.2-7.68-7.04-7.68z m-21.12 4.48c-0.64 0-1.28 0-2.56 0.64s-1.92 0.64-3.2 1.28c-3.84 1.28-5.76 5.76-4.48 9.6 1.28 3.84 5.76 5.76 9.6 4.48 0.64 0 1.92-0.64 2.56-0.64 3.84-1.28 6.4-5.76 5.12-9.6-1.28-3.84-3.84-5.76-7.04-5.76z m61.44 0c-3.2 0-6.4 1.92-7.04 5.12-1.28 3.84 0.64 8.32 5.12 9.6 0.64 0 1.92 0.64 2.56 0.64 3.84 1.28 8.32-0.64 9.6-4.48 1.28-3.84-0.64-8.32-4.48-9.6-1.28-0.64-1.92-0.64-3.2-1.28h-2.56z m20.48 8.96c-2.56 0-5.12 1.28-6.4 3.84-1.92 3.84-0.64 8.32 2.56 10.24l2.56 1.28c3.84 1.92 8.32 1.28 10.24-2.56 1.92-3.84 1.28-8.32-2.56-10.24l-2.56-1.92c-1.28-0.64-2.56-0.64-3.84-0.64z m-102.4 0c-1.28 0-2.56 0.64-3.84 1.28-0.64 0.64-1.92 1.28-2.56 1.92-3.84 2.56-4.48 7.04-2.56 10.24 2.56 3.2 7.04 4.48 10.24 2.56 0.64-0.64 1.28-1.28 2.56-1.28 3.84-1.92 4.48-7.04 2.56-10.24-1.28-3.2-3.2-4.48-6.4-4.48z m120.32 12.16c-2.56 0-4.48 1.28-6.4 3.2-2.56 3.2-1.28 8.32 1.92 10.24l2.56 1.92c3.2 2.56 8.32 1.28 10.24-1.92 2.56-3.2 1.28-8.32-1.92-10.24l-2.56-1.92c-0.64-1.28-1.92-1.28-3.84-1.28z m-137.6 0.64c-1.92 0-3.2 0.64-4.48 1.92l-2.56 1.92c-3.2 2.56-3.84 7.68-1.28 10.88 2.56 3.2 7.68 3.84 10.88 1.28l2.56-1.92c3.2-2.56 3.84-7.04 1.28-10.88-1.92-2.56-4.48-3.2-6.4-3.2z m156.8 10.24c-3.2 0-5.76 1.92-7.04 4.48-1.92 3.84 0 8.32 3.84 10.24 1.28 0.64 1.92 0.64 3.2 1.28 3.84 1.28 8.32-0.64 9.6-4.48 1.28-3.84-0.64-8.32-4.48-9.6-0.64-0.64-1.92-0.64-2.56-1.28-0.64 0-1.92-0.64-2.56-0.64z m-174.72 3.2c-1.28 0-3.2 0.64-4.48 1.28-0.64 0.64-1.28 1.28-2.56 1.92-3.2 2.56-4.48 7.04-1.92 10.24 2.56 3.2 7.04 4.48 10.24 1.92 0.64-0.64 1.92-1.28 2.56-1.92 3.2-2.56 4.48-7.04 1.92-10.88-0.64-1.92-3.2-2.56-5.76-2.56z m-18.56 10.88c-1.28 0-1.92 0-3.2 0.64-0.64 0.64-1.92 0.64-2.56 1.28-3.84 1.28-5.76 5.76-4.48 9.6 1.28 3.84 5.76 5.76 9.6 4.48 1.28-0.64 1.92-0.64 3.2-1.28 3.84-1.92 5.76-6.4 3.84-10.24-0.64-3.2-3.84-4.48-6.4-4.48zM707.84 581.12h-2.56c-3.84 0.64-7.04 4.48-6.4 8.96 0.64 3.84 4.48 7.04 8.96 6.4h1.28c3.84-0.64 7.04-4.48 6.4-8.96-1.28-3.84-4.48-6.4-7.68-6.4zM943.36 622.72c-3.84 0-7.68 3.2-7.68 7.04 0 4.48 3.2 7.68 7.04 7.68h1.92c4.48 0 7.68-3.2 7.68-7.68s-3.2-7.68-7.68-7.68l-1.28 0.64zM843.52 581.12c-3.84 0-7.04 3.2-7.68 7.04 0 4.48 2.56 7.68 7.04 8.32h2.56c4.48 0.64 7.68-2.56 8.32-7.04 0.64-3.84-2.56-7.68-7.04-8.32h-3.2z m-19.2 0c-1.92 0-2.56 0-3.84 0.64-3.84 0.64-7.04 3.84-7.04 8.32 0.64 4.48 4.48 7.04 8.32 7.04h2.56c4.48-0.64 7.04-3.84 7.04-8.32 0.64-4.48-3.2-7.68-7.04-7.68z m-21.12 3.84c-0.64 0-1.28 0-2.56 0.64s-1.92 0.64-3.2 1.28c-3.84 1.28-5.76 5.76-4.48 9.6 1.28 3.84 5.76 5.76 9.6 4.48 0.64 0 1.92-0.64 2.56-0.64 3.84-1.28 6.4-5.76 5.12-9.6-1.28-3.2-3.84-5.76-7.04-5.76z m61.44 0c-3.2 0-6.4 1.92-7.04 5.12-1.28 3.84 0.64 8.32 5.12 9.6 0.64 0 1.92 0.64 2.56 0.64 3.84 1.28 8.32-0.64 9.6-4.48 1.28-3.84-0.64-8.32-4.48-9.6-1.28-0.64-1.92-0.64-3.2-1.28-0.64 0.64-1.28 0-2.56 0z m20.48 8.96c-2.56 0-5.12 1.28-6.4 3.84-1.92 3.84-0.64 8.32 2.56 10.24l2.56 1.28c3.84 1.92 8.32 1.28 10.24-2.56 1.92-3.84 1.28-8.32-2.56-10.24l-2.56-1.92c-1.28 0-2.56-0.64-3.84-0.64z m-102.4 0c-1.28 0-2.56 0.64-3.84 1.28-0.64 0.64-1.92 1.28-2.56 1.92-3.84 2.56-4.48 7.04-2.56 10.24 2.56 3.2 7.04 4.48 10.24 2.56 0.64-0.64 1.28-1.28 2.56-1.28 3.84-1.92 4.48-7.04 2.56-10.24-1.28-2.56-3.2-4.48-6.4-4.48z m120.32 12.16c-2.56 0-4.48 1.28-6.4 3.2-2.56 3.2-1.28 8.32 1.92 10.24l2.56 1.92c3.2 2.56 8.32 1.28 10.24-1.92 2.56-3.2 1.28-8.32-1.92-10.24l-2.56-1.92c-0.64-0.64-1.92-1.28-3.84-1.28z m-137.6 0.64c-1.92 0-3.2 0.64-4.48 1.92l-2.56 1.92c-3.2 2.56-3.84 7.68-1.28 10.88 2.56 3.2 7.68 3.84 10.88 1.28l2.56-1.92c3.2-2.56 3.84-7.04 1.28-10.88-1.92-1.92-4.48-3.2-6.4-3.2z m156.8 10.88c-3.2 0-5.76 1.92-7.04 4.48-1.92 3.84 0 8.32 3.84 10.24 1.28 0.64 1.92 0.64 3.2 1.28 3.84 1.28 8.32-0.64 9.6-4.48 1.28-3.84-0.64-8.32-4.48-9.6-0.64-0.64-1.92-0.64-2.56-1.28-0.64-0.64-1.92-0.64-2.56-0.64z m-174.72 2.56c-1.28 0-3.2 0.64-4.48 1.28-0.64 0.64-1.28 1.28-2.56 1.92-3.2 2.56-4.48 7.04-1.92 10.24 2.56 3.2 7.04 4.48 10.24 1.92 0.64-0.64 1.92-1.28 2.56-1.92 3.2-2.56 4.48-7.04 1.92-10.88-0.64-1.28-3.2-2.56-5.76-2.56z m-18.56 11.52c-1.28 0-1.92 0-3.2 0.64-0.64 0.64-1.92 0.64-2.56 1.28-3.84 1.28-5.76 5.76-4.48 9.6 1.28 3.84 5.76 5.76 9.6 4.48 1.28-0.64 1.92-0.64 3.2-1.28 3.84-1.92 5.76-6.4 3.84-10.24-0.64-3.2-3.84-4.48-6.4-4.48zM707.84 638.0799999999999h-2.56c-3.84 0.64-7.04 4.48-6.4 8.96 0.64 3.84 4.48 7.04 8.96 6.4h1.28c3.84-0.64 7.04-4.48 6.4-8.96-1.28-3.84-4.48-6.4-7.68-6.4zM977.92 686.72l3.2 7.04-3.2-7.04-1.28 0.64c-3.84 1.92-5.76 6.4-3.84 10.24 1.92 3.84 6.4 5.76 10.24 3.84l0.64-0.64-5.76-14.08zM933.12 668.8c-3.84 0-7.68 3.2-7.68 7.68s3.2 7.68 7.68 7.68h1.92c4.48 0 7.68-3.2 7.68-7.68 0-3.84-3.2-7.68-7.68-7.68h-1.92zM835.2 637.44c-4.48 0-7.68 3.2-7.68 7.68s3.2 7.68 7.68 7.68h2.56c3.84 0 7.68-3.2 7.68-7.68s-3.2-7.68-7.68-7.68h-2.56c0.64 0 0 0 0 0z m-17.28 1.28h-1.28c-1.28 0-1.92 0-3.2 0.64-3.84 0.64-7.04 4.48-6.4 8.96 0.64 3.84 4.48 7.04 8.96 6.4 0.64 0 1.92 0 2.56-0.64 3.84-0.64 7.04-4.48 6.4-8.32-0.64-4.48-3.84-7.04-7.04-7.04z m38.4 0.64c-3.84 0-7.04 2.56-7.68 6.4-0.64 3.84 1.92 8.32 6.4 8.96 0.64 0 1.92 0.64 2.56 0.64 3.84 0.64 8.32-1.92 8.96-5.76 0.64-3.84-1.92-8.32-5.76-8.96-1.28 0-1.92-0.64-3.2-0.64-0.64-0.64-0.64-0.64-1.28-0.64z m-58.88 4.48c-0.64 0-1.92 0-2.56 0.64-1.28 0.64-1.92 0.64-3.2 1.28-3.84 1.92-5.76 6.4-3.84 10.24 1.92 3.84 5.76 5.76 10.24 3.84 0.64-0.64 1.92-0.64 2.56-1.28 3.84-1.28 5.76-5.76 4.48-9.6-1.92-3.2-4.48-5.12-7.68-5.12z m78.72 1.28c-3.2 0-5.76 1.92-7.04 4.48-1.92 3.84 0 8.32 3.84 10.24 0.64 0.64 1.92 0.64 2.56 1.28 3.84 1.92 8.32 0 10.24-3.84 1.92-3.84 0-8.32-3.84-10.24-0.64-0.64-1.92-0.64-2.56-1.28-1.28-0.64-1.92-0.64-3.2-0.64z m-97.28 8.32c-1.28 0-2.56 0.64-3.84 1.28-0.64 0.64-1.92 1.28-2.56 1.92-3.2 2.56-4.48 7.04-1.92 10.24 2.56 3.2 7.04 4.48 10.24 1.92 0.64-0.64 1.28-1.28 2.56-1.28 3.2-2.56 4.48-7.04 1.92-10.24-1.28-2.56-3.84-3.84-6.4-3.84z m115.2 1.92c-2.56 0-5.12 1.28-6.4 3.2-2.56 3.84-1.28 8.32 2.56 10.24l2.56 1.28c3.84 1.92 8.32 1.28 10.24-2.56 1.92-3.84 1.28-8.32-2.56-10.24l-2.56-1.28c-0.64-0.64-1.92-0.64-3.84-0.64z m18.56 9.6c-3.2 0-5.76 1.92-7.04 4.48-1.28 3.84 0.64 8.32 4.48 9.6 1.28 0.64 1.92 0.64 3.2 1.28 3.84 1.28 8.32-0.64 9.6-5.12 1.28-3.84-0.64-8.32-5.12-9.6-0.64 0-1.28-0.64-2.56-0.64-0.64 0.64-1.92 0-2.56 0z m-150.4 0.64c-1.92 0-3.2 0.64-4.48 1.92l-2.56 1.92c-3.2 2.56-3.84 7.68-1.28 10.88 2.56 3.2 7.68 3.84 10.88 1.28l2.56-1.92c3.2-2.56 3.84-7.68 1.28-10.88-1.92-1.92-3.84-3.2-6.4-3.2z m-16 12.8c-1.28 0-3.2 0.64-4.48 1.28-0.64 0.64-1.28 1.28-2.56 1.28-3.2 2.56-4.48 7.04-1.92 10.24 2.56 3.2 7.04 4.48 10.24 1.92 0.64-0.64 1.92-1.28 2.56-1.92 3.2-2.56 4.48-7.04 1.92-10.24-1.28-1.28-3.84-2.56-5.76-2.56z m-18.56 10.24c-1.28 0-1.92 0-3.2 0.64-0.64 0.64-1.92 0.64-2.56 1.28-3.84 1.28-5.76 5.76-4.48 9.6 1.28 3.84 5.76 5.76 9.6 4.48 1.28-0.64 1.92-0.64 3.2-1.28 3.84-1.92 5.76-6.4 3.84-10.24-0.64-2.56-3.2-4.48-6.4-4.48zM707.84 694.4h-2.56c-3.84 0.64-7.04 4.48-6.4 8.96 0.64 3.84 4.48 7.04 8.96 6.4h1.28c3.84-0.64 7.04-4.48 6.4-8.96-1.28-3.84-4.48-6.4-7.68-6.4zM369.28 80.63999999999999c-4.48 0-7.68 3.2-7.68 7.68 0 88.96 72.32 161.28 161.28 161.28 4.48 0 7.68-3.2 7.68-7.68s-3.2-7.68-7.68-7.68c-80.64 0-145.92-65.28-145.92-145.92 0-4.48-3.2-7.68-7.68-7.68zM323.2-78.08000000000004c-2.56 0-5.76 0.64-8.32 1.92-144.64 69.12-238.08 217.6-238.08 377.6 0 230.4 187.52 417.92 417.92 417.92 30.72 0 61.44-3.2 90.88-9.6 10.24-1.92 16.64-12.16 14.08-22.4-1.92-10.24-12.16-16.64-22.4-14.08-26.88 5.76-55.04 8.96-82.56 8.96-209.92 0-380.8-170.88-380.8-380.8 0-145.92 85.12-280.96 216.96-343.68 9.6-4.48 13.44-15.36 8.96-24.96-3.2-7.04-9.6-10.88-16.64-10.88zM282.88 49.91999999999996c-3.84 0-7.68 1.28-10.88 3.84-69.76 62.72-109.44 152.96-109.44 247.04 0 183.68 149.12 332.8 332.8 332.8 30.72 0 61.44-4.48 90.88-12.8 8.32-2.56 13.44-11.52 10.88-19.84-2.56-8.32-11.52-13.44-19.84-10.88C550.4 597.76 522.88 601.6 494.72 601.6c-165.76 0-300.8-135.04-300.8-300.8 0-85.12 35.84-166.4 99.2-223.36 6.4-5.76 7.04-16 1.28-22.4-2.56-3.2-7.04-5.12-11.52-5.12zM289.92 161.91999999999996c-4.48 0-8.96 2.56-11.52 6.4-24.32 39.68-37.76 85.76-37.76 133.12 0 140.16 113.92 254.72 254.72 254.72 31.36 0 62.08-5.76 91.52-17.28 7.04-2.56 10.24-10.24 7.68-17.28-2.56-7.04-10.24-10.24-17.28-7.68-26.24 10.24-53.76 15.36-81.92 15.36-125.44 0-227.84-102.4-227.84-227.84 0-42.24 11.52-83.2 33.28-119.04 3.84-6.4 1.92-14.72-4.48-18.56-1.92-1.28-3.84-1.92-6.4-1.92zM332.16 234.88c-4.48 0-8.32 2.56-10.24 7.04-6.4 19.2-9.6 39.04-9.6 59.52 0 101.12 81.92 183.04 183.04 183.04 32.64 0 64-8.32 92.16-24.96 5.12-3.2 7.04-9.6 3.84-14.72-3.2-5.12-9.6-7.04-14.72-3.84-24.32 14.08-52.48 21.76-81.28 21.76-88.96 0-161.28-72.32-161.28-161.28 0-17.92 3.2-35.84 8.96-52.48 1.92-5.76-1.28-11.52-6.4-13.44-1.92-0.64-3.2-0.64-4.48-0.64z"  horiz-adv-x="1024" />

    
    <glyph glyph-name="laba1-copy" unicode="&#60078;" d="M534.755556-54.044444c-5.688889 0-11.377778 0-17.066667 5.688888L227.555556 156.44444399999998H79.644444c-17.066667 0-28.444444 11.377778-28.444444 28.444445V543.2888889999999c0 17.066667 11.377778 28.444444 28.444444 28.444444H227.555556L512 782.222222h34.133333c11.377778-5.688889 17.066667-17.066667 17.066667-22.755555v-779.377778c0-11.377778-5.688889-22.755556-17.066667-22.755556-5.688889-11.377778-5.688889-11.377778-11.377777-11.377777zM238.933333 213.33333300000004c5.688889 0 11.377778 0 17.066667-5.688889l250.311111-182.044444V696.8888890000001L256 520.5333330000001h-5.688889c-5.688889 0-5.688889-5.688889-11.377778-5.688889H108.088889V213.33333300000004h130.844444zM671.288889 82.48888899999997c-5.688889 0-11.377778 0-17.066667 5.688889-11.377778 11.377778-11.377778 28.444444 0 39.822222 62.577778 68.266667 96.711111 153.6 96.711111 233.244444 0 85.333333-34.133333 164.977778-91.022222 233.244445-11.377778 11.377778-11.377778 28.444444 0 39.822222 11.377778 11.377778 28.444444 11.377778 39.822222 0C762.311111 554.666667 796.444444 463.644444 796.444444 366.93333299999995c0-96.711111-39.822222-193.422222-108.088888-273.066666-5.688889-5.688889-11.377778-11.377778-17.066667-11.377778zM813.511111-19.911111000000005c-5.688889 0-11.377778 0-17.066667 5.688889-11.377778 11.377778-17.066667 28.444444-5.688888 39.822222 79.644444 102.4 119.466667 216.177778 119.466666 335.644444 0 119.466667-39.822222 233.244444-119.466666 335.644445-11.377778 11.377778-5.688889 28.444444 5.688888 39.822222 11.377778 11.377778 28.444444 5.688889 39.822223-5.688889C921.6 622.933333 967.111111 497.777778 967.111111 366.93333299999995c0-136.533333-45.511111-261.688889-130.844444-375.466666-5.688889-5.688889-17.066667-11.377778-22.755556-11.377778z"  horiz-adv-x="1024" />

    
    <glyph glyph-name="yinlehe-copy" unicode="&#60080;" d="M569.716887 387.989735a76.140639 76.140639 0 0 0-72.37149 52.269364L381.588736 789.332134c-13.231982 39.913334 8.471793 83.151447 48.38193 96.383429A76.111867 76.111867 0 0 0 453.982604 889.606194a76.143836 76.143836 0 0 0 72.374687-52.272561l115.756661-349.069839c6.409791-19.334869 4.907246-40.009241-4.229503-58.212406s-24.817558-31.761231-44.152427-38.171022a76.131048 76.131048 0 0 0-24.015135-3.890631zM453.982604 844.849552c-3.353551 0-6.691118-0.543474-9.923187-1.617633-16.483232-5.466704-25.450545-23.327801-19.98384-39.817427l115.756661-349.069838a31.451132 31.451132 0 0 1 39.811033-19.983841 31.307271 31.307271 0 0 1 18.241528 15.770322 31.284893 31.284893 0 0 1 1.745509 24.047105l-115.756661 349.069838a31.457526 31.457526 0 0 1-29.891043 21.601474zM110.468983 429.421598c-11.716649 0-23.35977 2.733352-34.13653 8.145709a75.750617 75.750617 0 0 0-38.171022 44.152427c-12.813187 38.640967 7.125897 80.398914 44.628766 95.034335L390.022166 808.561506a22.378321 22.378321 0 0 0 26.956286-35.728588L107.064281 538.995448a22.349549 22.349549 0 0 0-6.432168-3.375929c-16.486429-5.469901-25.453742-23.334195-19.987038-39.820624a31.29768 31.29768 0 0 1 15.767126-18.238332 31.29768 31.29768 0 0 1 24.047104-1.745509c2.314558 0.76406 4.667478 1.08375 7.177047 1.134901l388.228704-2.327346a22.378321 22.378321 0 0 0-0.131073-44.756642h-0.137467l-384.865562 2.308164a76.396391 76.396391 0 0 0-20.261971-2.752533zM276.771877 242.287684a22.355943 22.355943 0 0 0-19.136661 10.747988L142.070369 442.944498a22.371927 22.371927 0 0 0 7.48395 30.747813 22.371927 22.371927 0 0 0 30.747813-7.48395l115.56165-189.908826a22.371927 22.371927 0 0 0-19.091905-34.011851zM673.341301-117.84983299999999H72.387475a22.378321 22.378321 0 0 0-22.378321 22.378321V264.66920200000004a22.378321 22.378321 0 0 0 22.378321 22.378321h600.953826a22.378321 22.378321 0 0 0 22.378321-22.378321v-360.137517a22.378321 22.378321 0 0 0-22.378321-22.381518z m-578.575505 44.756642h556.197184v315.380875H94.765796v-315.380875zM357.730249 242.287684a22.355943 22.355943 0 0 0-19.136662 10.747988l-115.564846 189.908826a22.371927 22.371927 0 0 0 7.48395 30.747813 22.36873 22.36873 0 0 0 30.747813-7.48395l115.564846-189.908826a22.371927 22.371927 0 0 0-19.095101-34.011851zM746.035678 567.975374c-23.139184 0-44.638357 10.402722-58.98286 28.535556-25.712691 32.502913-20.185246 79.865031 12.320864 105.577722a75.427729 75.427729 0 0 0 46.594861 16.214692c23.142381 0 44.641553-10.402722 58.98286-28.535557 12.455134-15.747944 18.036927-35.399307 15.706385-55.344784a74.679654 74.679654 0 0 0-28.027249-50.236134 75.430926 75.430926 0 0 0-46.594861-16.211495z m-0.067135 105.571328c-6.889326 0-13.401417-2.269801-18.829759-6.563242-13.148862-10.402722-15.386694-29.558565-4.983971-42.707427a30.271475 30.271475 0 0 1 23.880865-11.544017c6.889326 0 13.401417 2.269801 18.829759 6.563242a30.223521 30.223521 0 0 1 11.339415 20.319515 30.217127 30.217127 0 0 1-6.355444 22.387912 30.271475 30.271475 0 0 1-23.880865 11.544017zM778.650482 660.231601c-4.373363 0-8.791483 1.278761-12.666129 3.944978L655.684805 740.07745a22.378321 22.378321 0 0 0-8.657213 25.172414l22.841872 72.3619a22.378321 22.378321 0 0 0 42.681852-13.474947l-17.8579-56.572395 96.661559-66.514764a22.375124 22.375124 0 0 0 5.751228-31.118654 22.355943 22.355943 0 0 0-18.455721-9.699403zM885.113746 421.950436c-0.578639 0-1.154082 0.009591-1.735918 0.025575-33.986276 0.946283-60.865836 29.366751-59.916356 63.34983 0.936693 33.615435 27.998476 59.945128 61.607517 59.945128 0.581836 0 1.160476-0.009591 1.742313-0.025575 33.986276-0.946283 60.865836-29.366751 59.916356-63.34983-0.933496-33.615435-27.998476-59.945128-61.613912-59.945128z m-0.04156 94.548406a32.707515 32.707515 0 0 1-32.848178-31.972227c-0.505111-18.129637 13.829802-33.286154 31.956242-33.791265l0.936693-0.012787a32.710711 32.710711 0 0 1 32.854572 31.972226c0.505111 18.129637-13.829802 33.286154-31.956242 33.791265l-0.943087 0.012788zM930.215654 477.541382a14.392457 14.392457 0 0 0-13.852181 10.540189L884.26337 603.624039a14.392457 14.392457 0 0 0 6.122069 15.978121l57.291699 36.556586a14.386064 14.386064 0 0 0 15.479404-24.2581l-48.321189-30.830932 29.251663-105.290001a14.382867 14.382867 0 0 0-13.871362-18.238331zM921.059723 220.922781c-0.409204 0-0.81521 0.006394-1.22761 0.015985-23.970379 0.668153-42.928013 20.712735-42.263058 44.68631 0.677743 24.114239 20.434604 42.790547 44.68631 42.25986 23.967182-0.668153 42.924817-20.712735 42.259861-44.68631-0.661759-23.705036-19.74727-42.275845-43.455503-42.275845z m-0.028772 64.596622a20.994062 20.994062 0 0 1-21.086772-20.52092 21.128332 21.128332 0 0 1 20.514527-21.68779l0.601017-0.009591a20.990865 20.990865 0 0 1 21.083576 20.52092 21.125135 21.125135 0 0 1-20.51133 21.68779l-0.601018 0.009591zM951.871475 258.90198899999996a11.195554 11.195554 0 0 0-10.773564 8.196859l-21.930754 78.941126a11.185964 11.185964 0 0 0 4.760188 12.426362l39.139684 24.977403a11.185964 11.185964 0 1 0 12.039537-18.861728l-32.164042-20.524117 19.715301-70.96805a11.185964 11.185964 0 0 0-10.78635-14.187855z"  horiz-adv-x="1024" />

    
    <glyph glyph-name="yinle-copy-copy" unicode="&#60081;" d="M432.5 514.3c-8.3 0-15-6.7-15-15v-372.4c0-8.3 6.7-15 15-15s15 6.7 15 15V499.3c0 8.3-6.7 15-15 15zM512.1 514.3c-8.3 0-15-6.7-15-15v-372.4c0-8.3 6.7-15 15-15s15 6.7 15 15V499.3c0 8.3-6.7 15-15 15zM591.1 514.3c-8.3 0-15-6.7-15-15v-372.4c0-8.3 6.7-15 15-15s15 6.7 15 15V499.3c0 8.3-6.7 15-15 15zM653.1 144.89999999999998h-278c-16.6 0-30-13.4-30-30s13.4-30 30-30h278c16.6 0 30 13.4 30 30s-13.4 30-30 30zM383.1 688.6h100.1v-170.3H347.3c-16.6 0-30-13.4-30-30s13.4-30 30-30h329.9c16.6 0 30 13.4 30 30s-13.4 30-30 30h-134V688.6h102.4c16.6 0 30 13.4 30 30s-13.4 30-30 30H543.2v23.6h59.1c16.6 0 30 13.4 30 30s-13.4 30-30 30H422.7c-16.6 0-30-13.4-30-30s13.4-30 30-30h60.5v-23.6H383.1c-16.6 0-30-13.4-30-30s13.4-30 30-30zM721.1 624.3c-2.7 2.3-4.3 5.6-4.3 9.2 0 6.6 5.4 12.1 12.1 12.1s12.1-5.4 12.1-12.1c0-16.6 13.4-30 30-30s30 13.4 30 30c0 39.7-32.3 72.1-72.1 72.1s-72.1-32.3-72.1-72.1c0-21.4 9.5-41.6 25.7-55.2 1-0.9 2.1-1.8 3.2-2.6 0.9-0.7 1.8-1.3 2.7-1.9 0.7-0.4 1.3-0.9 2-1.2 86.3-59 137.6-156.1 137.6-260.7 0-84.3-32.8-163.6-92.5-223.3s-138.9-92.5-223.3-92.5c-84.3 0-163.6 32.8-223.3 92.5-59.6 59.6-92.5 138.9-92.5 223.3 0 105.1 52.1 203 139.2 261.9 1 0.7 2 1.5 2.9 2.3 18 13.6 28.7 34.8 28.7 57.5 0 39.7-32.3 72.1-72.1 72.1S223 673.4 223 633.6c0-16.6 13.4-30 30-30s30 13.4 30 30c0 6.6 5.4 12.1 12.1 12.1s12.1-5.4 12.1-12.1c0-4-2-7.7-5.3-10l-2.4-1.8C197.3 551.5 136.4 436 136.4 311.9c0-50.7 9.9-99.9 29.5-146.3 18.9-44.8 46-84.9 80.5-119.4s74.7-61.6 119.4-80.5c46.3-19.6 95.6-29.5 146.3-29.5 50.7 0 99.9 9.9 146.3 29.5 44.8 18.9 84.9 46 119.4 80.5s61.6 74.7 80.5 119.4c19.6 46.3 29.5 95.6 29.5 146.3 0.3 125.8-62.1 242.4-166.7 312.4z"  horiz-adv-x="1024" />

    
    <glyph glyph-name="icon-test-copy" unicode="&#60082;" d="M512-127.99898900000005a508.825859 508.825859 0 0 0-199.300347 40.239328 510.267041 510.267041 0 0 0-162.739827 109.732129 510.254399 510.254399 0 0 0-109.719487 162.727185A508.787933 508.787933 0 0 0 0.001011 384a508.787933 508.787933 0 0 0 40.239328 199.300347 510.254399 510.254399 0 0 0 109.732129 162.739827 510.279683 510.279683 0 0 0 162.727185 109.719487A508.800575 508.800575 0 0 0 512 895.998989c69.113542 0 136.166447-13.539529 199.300347-40.239328a510.254399 510.254399 0 0 0 162.739827-109.732129 510.254399 510.254399 0 0 0 109.719487-162.727185A508.813217 508.813217 0 0 0 1023.998989 384a508.838501 508.838501 0 0 0-40.239328-199.300347 510.292325 510.292325 0 0 0-109.732129-162.739827 510.229116 510.229116 0 0 0-162.727185-109.719487A508.813217 508.813217 0 0 0 512-127.99898900000005z m0 990.534735a476.980786 476.980786 0 0 1-338.374443-140.161303 476.955502 476.955502 0 0 1-102.564143-152.107947A475.51432 475.51432 0 0 1 33.464254 384a476.955502 476.955502 0 0 1 140.161303-338.374443 476.930218 476.930218 0 0 1 152.107947-102.564143A475.526962 475.526962 0 0 1 512-94.53574600000002a476.94286 476.94286 0 0 1 338.374443 140.161303 476.930218 476.930218 0 0 1 102.564143 152.107947A475.526962 475.526962 0 0 1 990.535746 384c0 64.600366-12.64195 127.279156-37.59716 186.266496a476.94286 476.94286 0 0 1-102.564143 152.107947A476.955502 476.955502 0 0 1 698.266496 824.951228 475.526962 475.526962 0 0 1 512 862.535746z m113.410936-190.324562l30.454459-7.484035c-13.602739-108.885118 144.295221-152.664192 91.148462-287.66758-4.980928-12.616666-16.927572-31.769221-29.417819-43.387173-13.754442-12.806296-20.189195-17.863076-33.614946-20.315614-7.205912-1.314763 7.180628 16.080561 11.92136 21.26376 18.684803 20.543169 26.889428 54.309819 24.487457 81.717567-3.805227 43.210186-54.941916 102.425082-91.325449 110.212523L569.015196 282.485139c-14.791082-60.1504-22.692301-84.119538-48.165831-106.609567-61.907631-54.651151-154.459349-60.289461-180.046656 10.17677-4.803941 13.22348-9.936573 37.875283-0.164346 57.925416 29.961422 61.604224 124.346224 85.699781 188.086937 35.245758l96.685636 392.975026z"  horiz-adv-x="1024" />

    
    <glyph glyph-name="yinle2-copy" unicode="&#60083;" d="M614.399946 573.601315V849.434433A46.403344 46.403344 0 0 0 660.964974 895.999461h255.999865a46.565028 46.565028 0 0 0 0-93.076161h-209.488731V386.155519c0-8.35368-2.155788-16.168413-6.036208-22.959146-21.989041-83.860166-100.837-145.515713-194.074845-145.515713-110.052995 0-200.164947 85.854271-200.164947 192.889162 0 107.034891 90.111953 192.835267 200.164947 192.835267 39.289242 0 75.991539-10.940626 107.034891-29.857669zM474.327599 894.921567a46.565028 46.565028 0 1 0 6.036207-92.914478c-217.195675-13.958729-387.287375-194.883266-387.287375-413.911361 0-229.052511 185.505587-414.665887 414.288624-414.665887 228.729143 0 414.234729 185.667271 414.234729 414.719782a413.156835 413.156835 0 0 1-102.184367 272.707225 46.565028 46.565028 0 1 0 70.170911 61.224389 506.232997 506.232997 0 0 0 125.089618-333.931614c0-280.468063-227.112302-507.849838-507.310891-507.849838-280.252484 0-507.364786 227.43567-507.364786 507.849838C0.000269 656.329692 208.303318 877.836944 474.327599 894.921567z m33.037456-584.164745c59.553653 0 107.034891 45.163766 107.034891 99.759105 0 54.541445-47.427343 99.705211-107.034891 99.705211-59.607548 0-107.088786-45.109871-107.088786-99.705211 0-54.541445 47.481238-99.705211 107.088786-99.705211z"  horiz-adv-x="1024" />

    
    </font>
</defs>
</svg>
